<svg width="129" height="117" viewBox="0 0 129 117" fill="none" xmlns="http://www.w3.org/2000/svg">
<mask id="mask0" mask-type="alpha" maskUnits="userSpaceOnUse" x="0" y="0" width="129" height="117">
<rect x="0.25" y="0.967285" width="128.047" height="115.783" rx="4.75" fill="#E8F7FF" stroke="#EAEAEA" stroke-width="0.5"/>
</mask>
<g mask="url(#mask0)">
<path fill-rule="evenodd" clip-rule="evenodd" d="M58.3691 139.786C86.0052 139.786 108.409 117.382 108.409 89.7463C108.409 62.1101 86.0052 39.7066 58.3691 39.7066C30.7329 39.7066 8.3294 62.1101 8.3294 89.7463C8.3294 117.382 30.7329 139.786 58.3691 139.786ZM58.3691 145.162C88.9745 145.162 113.785 120.352 113.785 89.7463C113.785 59.1409 88.9745 34.3303 58.3691 34.3303C27.7637 34.3303 2.95312 59.1409 2.95312 89.7463C2.95312 120.352 27.7637 145.162 58.3691 145.162Z" fill="#DEF2FD"/>
<g clip-path="url(#clip0)">
<path d="M78.6611 89.4753C77.3737 87.555 75.4309 86.236 72.8329 85.5191C76.1413 83.5725 77.5952 80.2687 77.196 75.6071C77.0626 73.9167 76.6576 72.4517 75.9801 71.2099C75.3021 69.9678 74.3873 68.9693 73.232 68.2139C72.0776 67.4576 70.8222 66.8818 69.4685 66.4849C68.1144 66.088 66.5599 65.7997 64.8059 65.6207L64.8059 55.9398L59.6776 55.9398L59.6776 65.3517C58.7896 65.3517 57.4353 65.3772 55.6149 65.4285L55.6149 55.9398L50.4859 55.9398L50.4859 65.6207C49.753 65.6464 48.6764 65.6594 47.2555 65.6594L40.1953 65.6207L40.1953 71.921L43.8917 71.921C45.5792 71.921 46.5672 72.7919 46.8557 74.5332L46.8557 85.5588C47.0781 85.5588 47.2555 85.5719 47.3888 85.5975L46.8557 85.5975L46.8557 101.04C46.6783 102.346 46.0345 102.999 44.9243 102.999L41.2281 102.999L40.1955 110.03L46.8563 110.03C47.2782 110.03 47.8884 110.036 48.688 110.048C49.4872 110.061 50.0864 110.067 50.4862 110.067L50.4862 119.863L55.6159 119.863L55.6159 110.182C56.5482 110.209 57.9025 110.221 59.6786 110.221L59.6786 119.863L64.807 119.863L64.807 110.067C66.628 109.965 68.2431 109.774 69.6523 109.491C71.0622 109.208 72.4114 108.767 73.6988 108.165C74.9861 107.564 76.0628 106.814 76.9285 105.918C77.7947 105.022 78.5101 103.882 79.0773 102.499C79.6426 101.115 80.0038 99.5147 80.1587 97.696C80.4486 94.1371 79.9488 91.3965 78.6611 89.4753ZM55.7146 72.3424C55.8701 72.3424 56.3086 72.3359 57.0302 72.323C57.7521 72.3098 58.3513 72.2972 58.8286 72.2843C59.3061 72.2716 59.95 72.3036 60.7607 72.3805C61.571 72.4573 62.2536 72.56 62.8085 72.6878C63.3634 72.8156 63.9745 73.027 64.64 73.3215C65.3066 73.6158 65.8391 73.9745 66.2383 74.397C66.6383 74.8195 66.9768 75.3576 67.2538 76.0107C67.5317 76.6637 67.6705 77.4128 67.6705 78.2578C67.6705 78.9749 67.5707 79.6282 67.3712 80.2175C67.1719 80.8065 66.8714 81.2996 66.4723 81.6965C66.073 82.0936 65.6615 82.4397 65.2396 82.7339C64.8181 83.0282 64.2792 83.2653 63.6245 83.4444C62.9698 83.6237 62.3982 83.7646 61.91 83.8669C61.4215 83.9694 60.811 84.0401 60.0783 84.0783C59.3454 84.1165 58.7901 84.1426 58.4129 84.1552C58.0353 84.1679 57.5193 84.1679 56.8641 84.1552C56.2087 84.1426 55.8263 84.1359 55.715 84.1359L55.715 72.3423L55.7146 72.3423L55.7146 72.3424ZM69.7193 98.5032C69.5078 99.0925 69.2362 99.605 68.9034 100.041C68.5701 100.475 68.1314 100.86 67.5877 101.192C67.0441 101.526 66.5163 101.794 66.006 101.999C65.4951 102.205 64.8788 102.383 64.1579 102.537C63.4354 102.691 62.803 102.799 62.2585 102.864C61.7148 102.928 61.0657 102.979 60.3105 103.018C59.5559 103.055 58.9672 103.075 58.5455 103.075C58.1236 103.075 57.5907 103.068 56.9468 103.055C56.3025 103.043 55.8922 103.037 55.7144 103.037L55.7144 90.0519C55.8918 90.0519 56.4192 90.0394 57.2964 90.0133C58.1737 89.9874 58.8893 89.9755 59.4444 89.9755C59.9994 89.9755 60.7657 90.0133 61.7429 90.0906C62.7193 90.1669 63.5408 90.2817 64.2075 90.4354C64.8733 90.5893 65.5999 90.8258 66.3886 91.1463C67.1766 91.4663 67.8152 91.8568 68.3039 92.3178C68.7924 92.7796 69.2029 93.3677 69.5358 94.085C69.8695 94.8019 70.036 95.6216 70.036 96.5438C70.0359 97.2617 69.9305 97.9137 69.7193 98.5032Z" fill="#DEF2FD"/>
</g>
<path d="M81.3488 58.8259H80.4141V131.113H81.3488V58.8259Z" fill="#0E4E90"/>
<path d="M85.52 58.0469H81.041V131.152H85.52V58.0469Z" fill="#2D9CDB"/>
<path d="M84.1151 4.80542V52.01H83.4141V6.67491C83.7256 6.20754 83.9983 5.58437 84.1151 4.80542Z" fill="white"/>
<path d="M83.4136 29.109V52.0103H81.9336L82.1673 29.5374L83.4136 29.109Z" fill="#A6DFF2"/>
<path d="M83.4143 6.67505V29.1089L82.168 29.5374L82.4017 7.84348C82.4795 7.80453 82.9859 7.41506 83.4143 6.67505Z" fill="white"/>
<path d="M108.029 56.762H86.8418V54.7756H106.939C107.289 55.3988 107.64 56.022 108.029 56.762Z" fill="#A6DFF2"/>
<path d="M110.756 62.4482H86.8418V60.4619H109.86C110.171 61.0851 110.483 61.7472 110.756 62.4482Z" fill="#A6DFF2"/>
<path d="M113.054 68.0951H86.8418V66.1088H112.275C112.547 66.7709 112.781 67.433 113.054 68.0951Z" fill="#A6DFF2"/>
<path d="M114.923 73.7822H86.8809V71.7959H114.339C114.495 72.458 114.69 73.0812 114.923 73.7822Z" fill="#A6DFF2"/>
<path d="M116.442 79.429H86.8418V77.4426H115.936C116.092 78.1047 116.286 78.7669 116.442 79.429Z" fill="#A6DFF2"/>
<path d="M117.649 85.1158H86.8418V83.1295H117.26C117.377 83.7916 117.533 84.4537 117.649 85.1158Z" fill="#A6DFF2"/>
<path d="M118.545 90.7629H86.8418V88.7766H118.273C118.35 89.4387 118.467 90.1008 118.545 90.7629Z" fill="#A6DFF2"/>
<path d="M119.168 96.4493H86.8418V94.463H118.974C119.052 95.1251 119.09 95.7872 119.168 96.4493Z" fill="#A6DFF2"/>
<path d="M119.48 102.097H86.8418V100.111H119.402C119.441 100.773 119.48 101.435 119.48 102.097Z" fill="#A6DFF2"/>
<path d="M119.558 105.797C119.558 106.459 119.558 107.121 119.558 107.783H86.8418V105.797H119.558Z" fill="#A6DFF2"/>
<path d="M119.48 111.444C119.441 112.106 119.441 112.768 119.402 113.431H86.8418V111.444H119.48Z" fill="#A6DFF2"/>
<path d="M106.939 54.8143H86.8418V53.8795H106.394C106.588 54.1522 106.783 54.4637 106.939 54.8143Z" fill="#D7F0F7"/>
<path d="M108.536 57.6966H86.8418V56.7618H108.029C108.185 57.0734 108.38 57.385 108.536 57.6966Z" fill="#D7F0F7"/>
<path d="M109.86 60.4614H86.8418V59.5266H109.431C109.587 59.8382 109.743 60.1498 109.86 60.4614Z" fill="#D7F0F7"/>
<path d="M111.184 63.3824H86.8418V62.4476H110.756C110.911 62.7592 111.028 63.0318 111.184 63.3824Z" fill="#D7F0F7"/>
<path d="M112.275 66.1482H86.8418V65.2135H111.924C112.041 65.5251 112.158 65.8367 112.275 66.1482Z" fill="#D7F0F7"/>
<path d="M113.365 69.0302H86.8418V68.0955H113.015C113.132 68.407 113.248 68.7186 113.365 69.0302Z" fill="#D7F0F7"/>
<path d="M114.3 71.795H86.8418V70.8602H113.988C114.105 71.1718 114.183 71.4834 114.3 71.795Z" fill="#D7F0F7"/>
<path d="M115.196 74.6779H86.8418V73.7432H114.884C115.001 74.0937 115.079 74.3663 115.196 74.6779Z" fill="#D7F0F7"/>
<path d="M115.936 77.4822H86.8418V76.5475H115.702C115.78 76.8591 115.858 77.1707 115.936 77.4822Z" fill="#D7F0F7"/>
<path d="M116.637 80.3637H86.8418V79.429H116.442C116.52 79.7405 116.598 80.0521 116.637 80.3637Z" fill="#D7F0F7"/>
<path d="M117.26 83.129H86.8418V82.1942H117.065C117.143 82.5058 117.182 82.8174 117.26 83.129Z" fill="#D7F0F7"/>
<path d="M117.805 86.0109H86.8418V85.0762H117.649C117.688 85.4267 117.766 85.7383 117.805 86.0109Z" fill="#D7F0F7"/>
<path d="M118.273 88.8152H86.8418V87.8805H118.117C118.156 88.1921 118.234 88.5037 118.273 88.8152Z" fill="#D7F0F7"/>
<path d="M118.662 91.6982H86.8418V90.7634H118.545C118.584 91.075 118.623 91.3866 118.662 91.6982Z" fill="#D7F0F7"/>
<path d="M118.974 94.4629H86.8418V93.5282H118.857C118.896 93.8398 118.935 94.1514 118.974 94.4629Z" fill="#D7F0F7"/>
<path d="M119.246 97.3449H86.8418V96.4102H119.129C119.168 96.7607 119.207 97.0333 119.246 97.3449Z" fill="#D7F0F7"/>
<path d="M119.519 103.032H86.8418V102.097H119.48C119.519 102.409 119.519 102.72 119.519 103.032Z" fill="#D7F0F7"/>
<path d="M119.558 105.797H86.8418V104.862H119.558C119.558 105.174 119.558 105.485 119.558 105.797Z" fill="#D7F0F7"/>
<path d="M119.558 107.783C119.558 108.095 119.558 108.406 119.558 108.718H86.8418V107.783H119.558Z" fill="#D7F0F7"/>
<path d="M119.519 110.548C119.519 110.86 119.48 111.172 119.48 111.483H86.8418V110.548H119.519Z" fill="#D7F0F7"/>
<path d="M119.363 113.431C119.363 113.742 119.324 114.054 119.324 114.366H86.8418V113.431H119.363Z" fill="#D7F0F7"/>
<path d="M119.207 116.196C119.168 116.507 119.168 116.819 119.129 117.13H86.8418V116.196H119.207Z" fill="#D7F0F7"/>
<path d="M119.402 100.149H86.8418V99.2145H119.363C119.363 99.5261 119.402 99.8376 119.402 100.149Z" fill="#D7F0F7"/>
<path d="M119.363 99.2149H86.8418V97.3844H119.207C119.285 97.9686 119.324 98.5918 119.363 99.2149Z" fill="#2D9CDB"/>
<path d="M106.432 53.8799H86.8418V52.0493H105.264C105.498 52.3998 105.887 53.023 106.432 53.8799Z" fill="#2D9CDB"/>
<path d="M109.431 59.5277H86.8418V57.6971H108.536C108.808 58.2814 109.12 58.9045 109.431 59.5277Z" fill="#2D9CDB"/>
<path d="M111.924 65.2135H86.8418V63.3829H111.145C111.418 63.9672 111.69 64.5903 111.924 65.2135Z" fill="#2D9CDB"/>
<path d="M113.988 70.8607H86.8418V69.0302H113.365C113.56 69.6144 113.794 70.2375 113.988 70.8607Z" fill="#2D9CDB"/>
<path d="M115.702 76.5475H86.8418V74.7169H115.196C115.352 75.3011 115.507 75.9243 115.702 76.5475Z" fill="#2D9CDB"/>
<path d="M117.065 82.1947H86.8418V80.3641H116.637C116.793 80.9484 116.909 81.5715 117.065 82.1947Z" fill="#2D9CDB"/>
<path d="M118.117 87.881H86.8418V86.0504H117.805C117.922 86.6346 118 87.2578 118.117 87.881Z" fill="#2D9CDB"/>
<path d="M118.896 93.5288H86.8418V91.6982H118.662C118.74 92.3214 118.818 92.9056 118.896 93.5288Z" fill="#2D9CDB"/>
<path d="M119.558 104.863H86.8418V103.032H119.519C119.558 103.655 119.558 104.24 119.558 104.863Z" fill="#2D9CDB"/>
<path d="M119.558 108.679C119.558 109.302 119.519 109.926 119.519 110.51H86.8418V108.679H119.558Z" fill="#2D9CDB"/>
<path d="M119.324 114.366C119.285 114.989 119.246 115.573 119.207 116.196H86.8809V114.366H119.324Z" fill="#2D9CDB"/>
<path d="M83.0238 52.0101H80.4922V54.5028H83.0238V52.0101Z" fill="#1A79DB"/>
<path d="M93.0739 133.216C93.0739 133.216 90.3865 130.256 90.3865 126.011C90.3865 121.765 86.7644 29.7708 86.7644 29.7708C86.7644 29.7708 126.919 68.2122 112.587 133.216H115.664C130.775 61.5521 83.0254 23.6949 83.0254 23.6949V117.131C83.0254 121.064 83.5707 124.998 84.7001 128.776C85.1675 130.373 85.7517 131.931 86.4917 133.216H93.0739Z" fill="white"/>
<path d="M98.4092 52.0099H96.0333C93.2291 43.8309 89.2954 37.015 86.9196 33.2371L86.8027 30.355C86.8027 30.355 94.086 39.3908 98.4092 52.0099Z" fill="white"/>
<path d="M96.0337 52.0101H95.1768C92.7231 44.7658 89.3736 38.6121 86.9589 34.6784L86.9199 33.2373C89.2957 37.0152 93.2295 43.8311 96.0337 52.0101Z" fill="#A6DFF2"/>
<path d="M114.338 51.8936C114.338 52.1662 112.235 51.9715 109.664 51.9715C107.093 51.9715 104.99 52.2052 104.99 51.8936C104.99 51.621 107.093 50.9199 109.664 50.9199C112.235 50.9199 114.338 51.621 114.338 51.8936Z" fill="#F0F3F4"/>
<path d="M114.338 51.8939C114.338 52.1665 112.235 52.4002 109.664 52.4002C107.093 52.4002 104.99 52.1665 104.99 51.8939C104.99 51.6213 107.093 51.3876 109.664 51.3876C112.235 51.3876 114.338 51.6213 114.338 51.8939Z" fill="#3EB5E1"/>
<path d="M107.404 52.3217C107.404 52.3217 107.755 53.8796 108.69 55.3206C108.806 55.5154 109.118 55.5543 109.274 55.3596C109.741 54.8533 110.598 53.7627 111.104 52.3217H107.404Z" fill="#2D9CDB"/>
<path d="M107.326 55.7101L109.079 53.8795L108.027 57.0343" stroke="#D7F0F7" stroke-miterlimit="10" stroke-linecap="round" stroke-linejoin="round"/>
<path d="M83.6873 54.697L82.9473 54.7749C83.181 54.697 83.4536 54.697 83.6873 54.697Z" fill="#4D7888"/>
<path d="M88.6711 55.8659C88.6711 57.0733 86.529 58.047 83.8805 58.047H81.0374V58.8259H79.2458C76.6752 58.787 75.3899 58.2806 75.351 58.0859C75.351 57.9301 75.5068 57.8912 75.5068 57.8912L79.2458 56.4501C79.1289 56.2554 79.051 56.0606 79.051 55.8659C79.051 55.7101 79.09 55.5933 79.1289 55.4375L75.5068 56.9175C75.5068 56.9175 75.1562 56.8785 75.1562 56.6059C75.1562 56.3333 75.8184 56.1385 75.8184 56.1385L80.8037 54.1911C81.6216 53.8796 82.7121 53.6848 83.8805 53.6848C86.529 53.7238 88.6711 54.6585 88.6711 55.8659Z" fill="#D7F0F7"/>
<path d="M87.9712 55.671C87.9712 56.2162 86.3354 56.6447 84.3491 56.6447C82.7911 56.6447 81.428 56.372 80.9217 55.9825H80.4932L75.5469 57.891V56.9173L80.4153 54.931L82.9469 54.7362C82.9469 54.7362 82.9469 54.7362 82.9859 54.7362L83.7259 54.6583H83.7648C83.9596 54.6583 84.1543 54.6583 84.3491 54.6583C86.3743 54.6583 87.9712 55.1257 87.9712 55.671Z" fill="#3EB5E1"/>
<path d="M87.1538 57.4628L83.0254 61.4354V58.047L87.1538 57.4628Z" fill="#AAAAAD"/>
<path d="M113.754 84.2588C113.754 84.2588 97.6682 97.7347 89.8008 108.991C89.8008 108.991 106.548 96.8778 113.754 84.2588Z" stroke="white" stroke-miterlimit="10"/>
<path d="M108.264 89.1278L109.588 90.3352" stroke="white" stroke-miterlimit="10"/>
<path d="M105.42 91.7759L107.095 93.2948" stroke="white" stroke-miterlimit="10"/>
<path d="M102.734 94.3468L104.526 96.0994" stroke="white" stroke-miterlimit="10"/>
<path d="M99.9277 97.1893L101.68 98.903" stroke="white" stroke-miterlimit="10"/>
<path d="M97.2793 99.9551L98.8372 101.591" stroke="white" stroke-miterlimit="10"/>
<path d="M94.709 102.798L95.9943 104.083" stroke="white" stroke-miterlimit="10"/>
<path d="M105.926 59.0592C105.926 59.0592 94.0082 73.0025 88.8281 83.791C88.8671 83.791 101.525 70.9772 105.926 59.0592Z" stroke="white" stroke-width="0.8735" stroke-miterlimit="10"/>
<path d="M101.912 64.0061L103.197 64.9019" stroke="white" stroke-width="0.8735" stroke-miterlimit="10"/>
<path d="M99.8496 66.693L101.524 67.7835" stroke="white" stroke-width="0.8735" stroke-miterlimit="10"/>
<path d="M97.9004 69.3025L99.692 70.5488" stroke="white" stroke-width="0.8735" stroke-miterlimit="10"/>
<path d="M95.877 72.1459L97.6685 73.3922" stroke="white" stroke-width="0.8735" stroke-miterlimit="10"/>
<path d="M93.9688 74.9117L95.5656 76.0802" stroke="white" stroke-width="0.8735" stroke-miterlimit="10"/>
<path d="M92.1758 77.7546L93.4611 78.6504" stroke="white" stroke-width="0.8735" stroke-miterlimit="10"/>
<path d="M115.701 109.419C115.701 109.419 99.1482 119.389 90.4239 128.503C90.3849 128.503 107.327 119.857 115.701 109.419Z" stroke="white" stroke-width="0.9208" stroke-miterlimit="10"/>
<path d="M110.018 113.041L111.03 114.326" stroke="white" stroke-width="0.9208" stroke-miterlimit="10"/>
<path d="M107.055 115.028L108.379 116.663" stroke="white" stroke-width="0.9208" stroke-miterlimit="10"/>
<path d="M104.25 117.014L105.613 118.844" stroke="white" stroke-width="0.9208" stroke-miterlimit="10"/>
<path d="M89.8008 108.991L115.701 107.316V109.419L89.8008 111.25V108.991Z" fill="white"/>
<path d="M88.3223 83.8305L114.222 82.1558V84.22L88.3223 86.0895V83.8305Z" fill="white"/>
<path d="M86.4551 58.3198L106.825 56.9956V59.0988L86.4551 60.5788V58.3198Z" fill="white"/>
</g>
<defs>
<clipPath id="clip0">
<rect x="45.9668" y="48.0725" width="55.416" height="63.9227" transform="rotate(21.2365 45.9668 48.0725)" fill="white"/>
</clipPath>
</defs>
</svg>
