<svg width="283" height="256" viewBox="0 0 283 256" fill="none" xmlns="http://www.w3.org/2000/svg">
<mask id="mask0" mask-type="alpha" maskUnits="userSpaceOnUse" x="0" y="0" width="283" height="256">
<rect x="0.25" y="0.25" width="282.5" height="255.5" rx="4.75" fill="#E8F7FF" stroke="#EAEAEA" stroke-width="0.5"/>
</mask>
<g mask="url(#mask0)">
<path fill-rule="evenodd" clip-rule="evenodd" d="M128.5 306.164C189.342 306.164 238.664 256.842 238.664 196C238.664 135.158 189.342 85.836 128.5 85.836C67.6581 85.836 18.336 135.158 18.336 196C18.336 256.842 67.6581 306.164 128.5 306.164ZM128.5 318C195.879 318 250.5 263.379 250.5 196C250.5 128.621 195.879 74 128.5 74C61.1213 74 6.5 128.621 6.5 196C6.5 263.379 61.1213 318 128.5 318Z" fill="#DEF2FD"/>
<g clip-path="url(#clip0)">
<path d="M173.168 195.404C170.334 191.176 166.057 188.272 160.337 186.694C167.621 182.408 170.821 175.135 169.943 164.872C169.649 161.151 168.757 157.925 167.266 155.192C165.773 152.457 163.759 150.259 161.216 148.596C158.674 146.931 155.91 145.663 152.93 144.789C149.949 143.916 146.527 143.281 142.665 142.887L142.665 121.574L131.375 121.574L131.375 142.295C129.42 142.295 126.439 142.351 122.431 142.464L122.431 121.574L111.139 121.574L111.139 142.887C109.526 142.943 107.156 142.972 104.028 142.972L88.4844 142.887L88.4844 156.757L96.6222 156.757C100.337 156.757 102.512 158.675 103.148 162.508L103.148 186.781C103.637 186.781 104.028 186.81 104.321 186.866L103.148 186.866L103.148 220.864C102.757 223.739 101.34 225.177 98.8954 225.177L90.7581 225.177L88.4849 240.655L103.149 240.655C104.078 240.655 105.421 240.669 107.181 240.694C108.941 240.723 110.26 240.737 111.14 240.737L111.14 262.303L122.433 262.303L122.433 240.991C124.486 241.048 127.467 241.076 131.378 241.076L131.378 262.303L142.668 262.303L142.668 240.737C146.677 240.512 150.232 240.091 153.335 239.469C156.439 238.846 159.409 237.875 162.243 236.55C165.077 235.225 167.448 233.575 169.354 231.602C171.261 229.63 172.836 227.12 174.084 224.075C175.329 221.03 176.124 217.506 176.465 213.502C177.103 205.667 176.003 199.633 173.168 195.404ZM122.651 157.685C122.993 157.685 123.958 157.671 125.547 157.642C127.136 157.613 128.455 157.585 129.506 157.557C130.557 157.529 131.975 157.6 133.76 157.769C135.544 157.938 137.046 158.164 138.268 158.445C139.49 158.727 140.835 159.192 142.3 159.841C143.768 160.488 144.94 161.278 145.819 162.208C146.699 163.138 147.445 164.323 148.055 165.761C148.666 167.198 148.972 168.847 148.972 170.708C148.972 172.287 148.752 173.725 148.313 175.022C147.874 176.319 147.213 177.404 146.334 178.278C145.455 179.152 144.549 179.914 143.62 180.562C142.692 181.21 141.506 181.732 140.064 182.126C138.623 182.521 137.365 182.831 136.29 183.056C135.214 183.282 133.871 183.438 132.257 183.522C130.644 183.606 129.421 183.663 128.591 183.691C127.76 183.719 126.624 183.719 125.181 183.691C123.738 183.663 122.896 183.649 122.651 183.649L122.651 157.685L122.651 157.685L122.651 157.685ZM153.482 215.279C153.017 216.576 152.419 217.704 151.686 218.664C150.952 219.62 149.986 220.467 148.789 221.199C147.593 221.933 146.431 222.524 145.308 222.975C144.183 223.428 142.826 223.821 141.239 224.16C139.648 224.499 138.256 224.737 137.057 224.879C135.86 225.02 134.431 225.132 132.769 225.218C131.107 225.3 129.811 225.343 128.883 225.343C127.954 225.343 126.781 225.328 125.363 225.3C123.945 225.274 123.041 225.26 122.65 225.26L122.65 196.673C123.041 196.673 124.202 196.645 126.133 196.588C128.064 196.531 129.64 196.505 130.862 196.505C132.084 196.505 133.771 196.588 135.922 196.758C138.072 196.926 139.88 197.179 141.348 197.517C142.814 197.856 144.413 198.377 146.15 199.082C147.885 199.787 149.291 200.646 150.366 201.661C151.442 202.678 152.345 203.973 153.078 205.552C153.813 207.13 154.18 208.935 154.18 210.965C154.179 212.545 153.947 213.981 153.482 215.279Z" fill="#DEF2FD"/>
</g>
<path d="M179.095 127.928H177.037V287.07H179.095V127.928Z" fill="#0E4E90"/>
<path d="M188.269 126.213H178.408V287.156H188.269V126.213Z" fill="#2D9CDB"/>
<path d="M185.182 9V112.922H183.639V13.1157C184.325 12.0868 184.925 10.7149 185.182 9Z" fill="white"/>
<path d="M183.639 62.5049V112.923H180.381L180.895 63.4481L183.639 62.5049Z" fill="#A6DFF2"/>
<path d="M183.638 13.1162V62.5051L180.895 63.4483L181.409 15.6885C181.58 15.6028 182.695 14.7454 183.638 13.1162Z" fill="white"/>
<path d="M237.829 123.384H191.184V119.011H235.428C236.2 120.383 236.971 121.755 237.829 123.384Z" fill="#A6DFF2"/>
<path d="M243.831 135.902H191.184V131.529H241.859C242.545 132.901 243.231 134.359 243.831 135.902Z" fill="#A6DFF2"/>
<path d="M248.89 148.334H191.184V143.961H247.175C247.775 145.419 248.29 146.876 248.89 148.334Z" fill="#A6DFF2"/>
<path d="M253.006 160.854H191.27V156.481H251.719C252.062 157.939 252.491 159.311 253.006 160.854Z" fill="#A6DFF2"/>
<path d="M256.349 173.286H191.184V168.913H255.235C255.578 170.371 256.007 171.828 256.349 173.286Z" fill="#A6DFF2"/>
<path d="M259.008 185.806H191.184V181.433H258.15C258.407 182.89 258.75 184.348 259.008 185.806Z" fill="#A6DFF2"/>
<path d="M260.98 198.238H191.184V193.865H260.379C260.551 195.323 260.808 196.781 260.98 198.238Z" fill="#A6DFF2"/>
<path d="M262.352 210.757H191.184V206.384H261.923C262.094 207.841 262.18 209.299 262.352 210.757Z" fill="#A6DFF2"/>
<path d="M263.038 223.19H191.184V218.817H262.866C262.952 220.275 263.038 221.733 263.038 223.19Z" fill="#A6DFF2"/>
<path d="M263.209 231.336C263.209 232.794 263.209 234.251 263.209 235.709H191.184V231.336H263.209Z" fill="#A6DFF2"/>
<path d="M263.038 243.769C262.952 245.226 262.952 246.684 262.866 248.142H191.184V243.769H263.038Z" fill="#A6DFF2"/>
<path d="M235.428 119.096H191.184V117.038H234.227C234.656 117.638 235.085 118.324 235.428 119.096Z" fill="#D7F0F7"/>
<path d="M238.943 125.442H191.184V123.384H237.829C238.172 124.07 238.6 124.756 238.943 125.442Z" fill="#D7F0F7"/>
<path d="M241.859 131.529H191.184V129.471H240.915C241.258 130.157 241.601 130.843 241.859 131.529Z" fill="#D7F0F7"/>
<path d="M244.774 137.959H191.184V135.901H243.831C244.174 136.587 244.431 137.188 244.774 137.959Z" fill="#D7F0F7"/>
<path d="M247.175 144.048H191.184V141.99H246.403C246.66 142.676 246.918 143.362 247.175 144.048Z" fill="#D7F0F7"/>
<path d="M249.576 150.393H191.184V148.335H248.804C249.061 149.021 249.318 149.707 249.576 150.393Z" fill="#D7F0F7"/>
<path d="M251.634 156.48H191.184V154.422H250.948C251.205 155.108 251.376 155.794 251.634 156.48Z" fill="#D7F0F7"/>
<path d="M253.606 162.826H191.184V160.769H252.92C253.177 161.54 253.348 162.14 253.606 162.826Z" fill="#D7F0F7"/>
<path d="M255.235 169H191.184V166.942H254.72C254.892 167.628 255.063 168.314 255.235 169Z" fill="#D7F0F7"/>
<path d="M256.778 175.344H191.184V173.286H256.35C256.521 173.972 256.692 174.658 256.778 175.344Z" fill="#D7F0F7"/>
<path d="M258.15 181.432H191.184V179.374H257.721C257.893 180.06 257.979 180.746 258.15 181.432Z" fill="#D7F0F7"/>
<path d="M259.351 187.777H191.184V185.719H259.008C259.093 186.49 259.265 187.176 259.351 187.777Z" fill="#D7F0F7"/>
<path d="M260.379 193.95H191.184V191.893H260.037C260.122 192.579 260.294 193.264 260.379 193.95Z" fill="#D7F0F7"/>
<path d="M261.237 200.297H191.184V198.239H260.98C261.065 198.925 261.151 199.611 261.237 200.297Z" fill="#D7F0F7"/>
<path d="M261.923 206.384H191.184V204.326H261.666C261.751 205.012 261.837 205.698 261.923 206.384Z" fill="#D7F0F7"/>
<path d="M262.523 212.729H191.184V210.671H262.266C262.352 211.443 262.437 212.043 262.523 212.729Z" fill="#D7F0F7"/>
<path d="M263.123 225.248H191.184V223.19H263.038C263.123 223.876 263.123 224.562 263.123 225.248Z" fill="#D7F0F7"/>
<path d="M263.209 231.336H191.184V229.278H263.209C263.209 229.964 263.209 230.65 263.209 231.336Z" fill="#D7F0F7"/>
<path d="M263.209 235.709C263.209 236.395 263.209 237.081 263.209 237.767H191.184V235.709H263.209Z" fill="#D7F0F7"/>
<path d="M263.123 241.797C263.123 242.483 263.038 243.169 263.038 243.855H191.184V241.797H263.123Z" fill="#D7F0F7"/>
<path d="M262.78 248.143C262.78 248.829 262.695 249.514 262.695 250.2H191.184V248.143H262.78Z" fill="#D7F0F7"/>
<path d="M262.437 254.229C262.352 254.915 262.352 255.601 262.266 256.287H191.184V254.229H262.437Z" fill="#D7F0F7"/>
<path d="M262.866 218.903H191.184V216.845H262.78C262.78 217.531 262.866 218.217 262.866 218.903Z" fill="#D7F0F7"/>
<path d="M262.78 216.845H191.184V212.815H262.437C262.609 214.102 262.695 215.474 262.78 216.845Z" fill="#2D9CDB"/>
<path d="M234.313 117.039H191.184V113.009H231.741C232.255 113.78 233.113 115.152 234.313 117.039Z" fill="#2D9CDB"/>
<path d="M240.915 129.472H191.184V125.442H238.943C239.544 126.729 240.23 128.1 240.915 129.472Z" fill="#2D9CDB"/>
<path d="M246.403 141.99H191.184V137.96H244.688C245.288 139.246 245.889 140.618 246.403 141.99Z" fill="#2D9CDB"/>
<path d="M250.948 154.423H191.184V150.393H249.576C250.004 151.679 250.519 153.051 250.948 154.423Z" fill="#2D9CDB"/>
<path d="M254.72 166.942H191.184V162.912H253.606C253.949 164.198 254.292 165.57 254.72 166.942Z" fill="#2D9CDB"/>
<path d="M257.721 179.375H191.184V175.345H256.778C257.121 176.631 257.378 178.003 257.721 179.375Z" fill="#2D9CDB"/>
<path d="M260.037 191.893H191.184V187.863H259.351C259.608 189.149 259.779 190.521 260.037 191.893Z" fill="#2D9CDB"/>
<path d="M261.751 204.327H191.184V200.297H261.237C261.408 201.669 261.58 202.955 261.751 204.327Z" fill="#2D9CDB"/>
<path d="M263.209 229.279H191.184V225.249H263.123C263.209 226.621 263.209 227.907 263.209 229.279Z" fill="#2D9CDB"/>
<path d="M263.209 237.682C263.209 239.054 263.123 240.425 263.123 241.712H191.184V237.682H263.209Z" fill="#2D9CDB"/>
<path d="M262.695 250.2C262.609 251.572 262.523 252.858 262.438 254.23H191.27V250.2H262.695Z" fill="#2D9CDB"/>
<path d="M182.78 112.923H177.207V118.411H182.78V112.923Z" fill="#1A79DB"/>
<path d="M204.903 291.7C204.903 291.7 198.987 285.183 198.987 275.837C198.987 266.491 191.013 63.9621 191.013 63.9621C191.013 63.9621 279.415 148.592 247.861 291.7H254.635C287.904 133.93 182.781 50.5859 182.781 50.5859V256.287C182.781 264.947 183.982 273.608 186.468 281.925C187.497 285.44 188.783 288.87 190.413 291.7H204.903Z" fill="white"/>
<path d="M216.65 112.922H211.419C205.246 94.9157 196.585 79.9104 191.355 71.5931L191.098 65.248C191.098 65.248 207.132 85.1408 216.65 112.922Z" fill="white"/>
<path d="M211.42 112.923H209.533C204.131 96.9742 196.757 83.4265 191.441 74.7663L191.355 71.5938C196.586 79.911 205.246 94.9163 211.42 112.923Z" fill="#A6DFF2"/>
<path d="M251.721 112.666C251.721 113.266 247.091 112.838 241.432 112.838C235.773 112.838 231.143 113.352 231.143 112.666C231.143 112.066 235.773 110.522 241.432 110.522C247.091 110.522 251.721 112.066 251.721 112.666Z" fill="#F0F3F4"/>
<path d="M251.719 112.666C251.719 113.267 247.089 113.781 241.43 113.781C235.771 113.781 231.141 113.267 231.141 112.666C231.141 112.066 235.771 111.552 241.43 111.552C247.089 111.552 251.719 112.066 251.719 112.666Z" fill="#3EB5E1"/>
<path d="M236.457 113.608C236.457 113.608 237.229 117.038 239.287 120.211C239.544 120.639 240.23 120.725 240.573 120.296C241.602 119.182 243.488 116.781 244.603 113.608H236.457Z" fill="#2D9CDB"/>
<path d="M236.285 121.068L240.144 117.038L237.829 123.983" stroke="#D7F0F7" stroke-miterlimit="10" stroke-linecap="round" stroke-linejoin="round"/>
<path d="M184.239 118.838L182.609 119.009C183.124 118.838 183.724 118.838 184.239 118.838Z" fill="#4D7888"/>
<path d="M195.214 121.411C195.214 124.069 190.498 126.213 184.668 126.213H178.408V127.928H174.464C168.805 127.842 165.975 126.727 165.89 126.299C165.89 125.956 166.233 125.87 166.233 125.87L174.464 122.697C174.207 122.269 174.035 121.84 174.035 121.411C174.035 121.068 174.121 120.811 174.207 120.468L166.233 123.726C166.233 123.726 165.461 123.64 165.461 123.04C165.461 122.44 166.919 122.011 166.919 122.011L177.894 117.724C179.695 117.038 182.095 116.609 184.668 116.609C190.498 116.695 195.214 118.753 195.214 121.411Z" fill="#D7F0F7"/>
<path d="M193.671 120.982C193.671 122.183 190.07 123.126 185.697 123.126C182.267 123.126 179.266 122.526 178.151 121.668H177.208L166.318 125.87V123.726L177.036 119.353L182.61 118.924C182.61 118.924 182.61 118.924 182.696 118.924L184.325 118.753H184.41C184.839 118.753 185.268 118.753 185.697 118.753C190.155 118.753 193.671 119.782 193.671 120.982Z" fill="#3EB5E1"/>
<path d="M191.87 124.927L182.781 133.673V126.213L191.87 124.927Z" fill="#AAAAAD"/>
<path d="M250.434 183.919C250.434 183.919 215.022 213.587 197.701 238.367C197.701 238.367 234.571 211.7 250.434 183.919Z" stroke="white" stroke-miterlimit="10"/>
<path d="M238.344 194.638L241.259 197.296" stroke="white" stroke-miterlimit="10"/>
<path d="M232.084 200.468L235.771 203.812" stroke="white" stroke-miterlimit="10"/>
<path d="M226.168 206.128L230.112 209.986" stroke="white" stroke-miterlimit="10"/>
<path d="M219.994 212.386L223.853 216.159" stroke="white" stroke-miterlimit="10"/>
<path d="M214.164 218.475L217.594 222.076" stroke="white" stroke-miterlimit="10"/>
<path d="M208.504 224.732L211.333 227.562" stroke="white" stroke-miterlimit="10"/>
<path d="M233.2 128.441C233.2 128.441 206.963 159.138 195.559 182.889C195.644 182.889 223.511 154.679 233.2 128.441Z" stroke="white" stroke-width="0.8735" stroke-miterlimit="10"/>
<path d="M224.367 139.332L227.197 141.304" stroke="white" stroke-width="0.8735" stroke-miterlimit="10"/>
<path d="M219.824 145.247L223.511 147.648" stroke="white" stroke-width="0.8735" stroke-miterlimit="10"/>
<path d="M215.535 150.992L219.479 153.736" stroke="white" stroke-width="0.8735" stroke-miterlimit="10"/>
<path d="M211.078 157.252L215.022 159.996" stroke="white" stroke-width="0.8735" stroke-miterlimit="10"/>
<path d="M206.875 163.341L210.391 165.913" stroke="white" stroke-width="0.8735" stroke-miterlimit="10"/>
<path d="M202.932 169.6L205.761 171.572" stroke="white" stroke-width="0.8735" stroke-miterlimit="10"/>
<path d="M254.721 239.31C254.721 239.31 218.279 261.26 199.072 281.324C198.987 281.324 236.286 262.289 254.721 239.31Z" stroke="white" stroke-width="0.9208" stroke-miterlimit="10"/>
<path d="M242.203 247.283L244.432 250.113" stroke="white" stroke-width="0.9208" stroke-miterlimit="10"/>
<path d="M235.686 251.657L238.601 255.259" stroke="white" stroke-width="0.9208" stroke-miterlimit="10"/>
<path d="M229.512 256.029L232.513 260.059" stroke="white" stroke-width="0.9208" stroke-miterlimit="10"/>
<path d="M197.701 238.368L254.721 234.681V239.311L197.701 243.341V238.368Z" fill="white"/>
<path d="M194.441 182.976L251.462 179.289V183.834L194.441 187.949V182.976Z" fill="white"/>
<path d="M190.328 126.814L235.173 123.898V128.529L190.328 131.787V126.814Z" fill="white"/>
</g>
<defs>
<clipPath id="clip0">
<rect x="101.193" y="104.254" width="122" height="140.728" transform="rotate(21.2365 101.193 104.254)" fill="white"/>
</clipPath>
</defs>
</svg>
