<svg width="14" height="14" viewBox="0 0 14 14" fill="none" xmlns="http://www.w3.org/2000/svg">
<g id="Icon/Outline/email">
<path id="Mask" fill-rule="evenodd" clip-rule="evenodd" d="M11.0834 10.5H2.91669C2.59527 10.5 2.33335 10.2387 2.33335 9.91667V4.22917L6.65002 7.46667C6.75385 7.54484 6.87694 7.58334 7.00002 7.58334C7.1231 7.58334 7.24619 7.54484 7.35002 7.46667L11.6667 4.22917V9.91667C11.6667 10.2387 11.4048 10.5 11.0834 10.5ZM10.6943 3.5L7.00002 6.27084L3.30577 3.5H10.6943ZM11.0834 2.33334H2.91669C1.95185 2.33334 1.16669 3.1185 1.16669 4.08334V9.91667C1.16669 10.8815 1.95185 11.6667 2.91669 11.6667H11.0834C12.0482 11.6667 12.8334 10.8815 12.8334 9.91667V4.08334C12.8334 3.1185 12.0482 2.33334 11.0834 2.33334Z" fill="#231F20"/>
<mask id="mask0" mask-type="alpha" maskUnits="userSpaceOnUse" x="1" y="2" width="12" height="10">
<path id="Mask_2" fill-rule="evenodd" clip-rule="evenodd" d="M11.0834 10.5H2.91669C2.59527 10.5 2.33335 10.2387 2.33335 9.91667V4.22917L6.65002 7.46667C6.75385 7.54484 6.87694 7.58334 7.00002 7.58334C7.1231 7.58334 7.24619 7.54484 7.35002 7.46667L11.6667 4.22917V9.91667C11.6667 10.2387 11.4048 10.5 11.0834 10.5ZM10.6943 3.5L7.00002 6.27084L3.30577 3.5H10.6943ZM11.0834 2.33334H2.91669C1.95185 2.33334 1.16669 3.1185 1.16669 4.08334V9.91667C1.16669 10.8815 1.95185 11.6667 2.91669 11.6667H11.0834C12.0482 11.6667 12.8334 10.8815 12.8334 9.91667V4.08334C12.8334 3.1185 12.0482 2.33334 11.0834 2.33334Z" fill="white"/>
</mask>
<g mask="url(#mask0)">
<g id="&#240;&#159;&#142;&#168; Color">
<rect id="Base" width="14" height="14" fill="#575A65"/>
</g>
</g>
</g>
</svg>
