<svg width="14" height="14" viewBox="0 0 14 14" fill="none" xmlns="http://www.w3.org/2000/svg">
<g id="Icon/Outline/lock">
<path id="Mask" fill-rule="evenodd" clip-rule="evenodd" d="M6.99998 9.33333C6.67798 9.33333 6.41665 9.072 6.41665 8.75C6.41665 8.428 6.67798 8.16667 6.99998 8.16667C7.32198 8.16667 7.58331 8.428 7.58331 8.75C7.58331 9.072 7.32198 9.33333 6.99998 9.33333ZM6.99998 7C6.03515 7 5.24998 7.78517 5.24998 8.75C5.24998 9.71483 6.03515 10.5 6.99998 10.5C7.96481 10.5 8.74998 9.71483 8.74998 8.75C8.74998 7.78517 7.96481 7 6.99998 7ZM10.5 11.0833C10.5 11.4053 10.2386 11.6667 9.91665 11.6667H4.08331C3.76131 11.6667 3.49998 11.4053 3.49998 11.0833V6.41667C3.49998 6.09467 3.76131 5.83333 4.08331 5.83333H4.66665H5.83331H8.16665H9.33331H9.91665C10.2386 5.83333 10.5 6.09467 10.5 6.41667V11.0833ZM5.83331 3.56475C5.83331 2.88575 6.35656 2.33333 6.99998 2.33333C7.6434 2.33333 8.16665 2.88575 8.16665 3.56475V4.66667H5.83331V3.56475ZM9.91665 4.66667H9.33331V3.56475C9.33331 2.24292 8.28681 1.16667 6.99998 1.16667C5.71315 1.16667 4.66665 2.24292 4.66665 3.56475V4.66667H4.08331C3.11848 4.66667 2.33331 5.45183 2.33331 6.41667V11.0833C2.33331 12.0482 3.11848 12.8333 4.08331 12.8333H9.91665C10.8815 12.8333 11.6666 12.0482 11.6666 11.0833V6.41667C11.6666 5.45183 10.8815 4.66667 9.91665 4.66667Z" fill="#231F20"/>
<mask id="mask0" mask-type="alpha" maskUnits="userSpaceOnUse" x="2" y="1" width="10" height="12">
<path id="Mask_2" fill-rule="evenodd" clip-rule="evenodd" d="M6.99998 9.33333C6.67798 9.33333 6.41665 9.072 6.41665 8.75C6.41665 8.428 6.67798 8.16667 6.99998 8.16667C7.32198 8.16667 7.58331 8.428 7.58331 8.75C7.58331 9.072 7.32198 9.33333 6.99998 9.33333ZM6.99998 7C6.03515 7 5.24998 7.78517 5.24998 8.75C5.24998 9.71483 6.03515 10.5 6.99998 10.5C7.96481 10.5 8.74998 9.71483 8.74998 8.75C8.74998 7.78517 7.96481 7 6.99998 7ZM10.5 11.0833C10.5 11.4053 10.2386 11.6667 9.91665 11.6667H4.08331C3.76131 11.6667 3.49998 11.4053 3.49998 11.0833V6.41667C3.49998 6.09467 3.76131 5.83333 4.08331 5.83333H4.66665H5.83331H8.16665H9.33331H9.91665C10.2386 5.83333 10.5 6.09467 10.5 6.41667V11.0833ZM5.83331 3.56475C5.83331 2.88575 6.35656 2.33333 6.99998 2.33333C7.6434 2.33333 8.16665 2.88575 8.16665 3.56475V4.66667H5.83331V3.56475ZM9.91665 4.66667H9.33331V3.56475C9.33331 2.24292 8.28681 1.16667 6.99998 1.16667C5.71315 1.16667 4.66665 2.24292 4.66665 3.56475V4.66667H4.08331C3.11848 4.66667 2.33331 5.45183 2.33331 6.41667V11.0833C2.33331 12.0482 3.11848 12.8333 4.08331 12.8333H9.91665C10.8815 12.8333 11.6666 12.0482 11.6666 11.0833V6.41667C11.6666 5.45183 10.8815 4.66667 9.91665 4.66667Z" fill="white"/>
</mask>
<g mask="url(#mask0)">
<g id="&#240;&#159;&#142;&#168; Color">
<rect id="Base" width="14" height="14" fill="#575A65"/>
</g>
</g>
</g>
</svg>
