<svg width="14" height="14" viewBox="0 0 14 14" fill="none" xmlns="http://www.w3.org/2000/svg">
<g id="Icon/Outline/person">
<path id="Mask" fill-rule="evenodd" clip-rule="evenodd" d="M8.16669 4.08333C8.16669 3.43992 7.64344 2.91667 7.00002 2.91667C6.3566 2.91667 5.83335 3.43992 5.83335 4.08333C5.83335 4.72675 6.3566 5.25 7.00002 5.25C7.64344 5.25 8.16669 4.72675 8.16669 4.08333ZM9.33335 4.08333C9.33335 5.37017 8.28685 6.41667 7.00002 6.41667C5.71319 6.41667 4.66669 5.37017 4.66669 4.08333C4.66669 2.7965 5.71319 1.75 7.00002 1.75C8.28685 1.75 9.33335 2.7965 9.33335 4.08333ZM2.91669 11.6667C2.91669 9.415 4.74894 7.58333 7.00002 7.58333C9.2511 7.58333 11.0834 9.415 11.0834 11.6667C11.0834 11.9887 10.8226 12.25 10.5 12.25C10.1774 12.25 9.91669 11.9887 9.91669 11.6667C9.91669 10.0584 8.60827 8.75 7.00002 8.75C5.39177 8.75 4.08335 10.0584 4.08335 11.6667C4.08335 11.9887 3.8226 12.25 3.50002 12.25C3.17744 12.25 2.91669 11.9887 2.91669 11.6667Z" fill="#231F20"/>
<mask id="mask0" mask-type="alpha" maskUnits="userSpaceOnUse" x="2" y="1" width="10" height="12">
<path id="Mask_2" fill-rule="evenodd" clip-rule="evenodd" d="M8.16669 4.08333C8.16669 3.43992 7.64344 2.91667 7.00002 2.91667C6.3566 2.91667 5.83335 3.43992 5.83335 4.08333C5.83335 4.72675 6.3566 5.25 7.00002 5.25C7.64344 5.25 8.16669 4.72675 8.16669 4.08333ZM9.33335 4.08333C9.33335 5.37017 8.28685 6.41667 7.00002 6.41667C5.71319 6.41667 4.66669 5.37017 4.66669 4.08333C4.66669 2.7965 5.71319 1.75 7.00002 1.75C8.28685 1.75 9.33335 2.7965 9.33335 4.08333ZM2.91669 11.6667C2.91669 9.415 4.74894 7.58333 7.00002 7.58333C9.2511 7.58333 11.0834 9.415 11.0834 11.6667C11.0834 11.9887 10.8226 12.25 10.5 12.25C10.1774 12.25 9.91669 11.9887 9.91669 11.6667C9.91669 10.0584 8.60827 8.75 7.00002 8.75C5.39177 8.75 4.08335 10.0584 4.08335 11.6667C4.08335 11.9887 3.8226 12.25 3.50002 12.25C3.17744 12.25 2.91669 11.9887 2.91669 11.6667Z" fill="white"/>
</mask>
<g mask="url(#mask0)">
<g id="&#240;&#159;&#142;&#168; Color">
<rect id="Base" width="14" height="14" fill="#575A65"/>
</g>
</g>
</g>
</svg>
