<svg width="67" height="67" viewBox="0 0 67 67" fill="none" xmlns="http://www.w3.org/2000/svg">
<g filter="url(#filter0_d)">
<rect x="4" y="4" width="59" height="58.8235" rx="5" fill="white"/>
</g>
<path d="M36.8893 25.8493L32.1729 31.5069L30.5212 29.5264C29.8719 28.7465 28.7122 28.6423 27.9343 29.2916C27.1544 29.9409 27.0502 31.1006 27.6995 31.8785L30.7621 35.5536C31.4093 36.3335 32.567 36.4397 33.3469 35.7924C33.4327 35.721 33.5123 35.6414 33.5838 35.5556L39.711 28.2034C40.3725 27.4316 40.2826 26.2719 39.5109 25.6124C38.7391 24.9509 37.5794 25.0407 36.9199 25.8125C36.9077 25.8268 36.8975 25.837 36.8893 25.8493Z" fill="#2D9CDB"/>
<path d="M33.7045 16C25.5825 16 19 22.5825 19 30.7045C19 38.8265 25.5825 45.409 33.7045 45.409C41.8264 45.409 48.409 38.8265 48.409 30.7045C48.4008 22.5866 41.8224 16.0082 33.7045 16ZM33.7045 41.7318C27.614 41.7318 22.6751 36.7949 22.6751 30.7045C22.6751 24.614 27.612 19.6771 33.7024 19.6771C39.7929 19.6771 44.7298 24.614 44.7298 30.7045C44.7257 36.7909 39.7929 41.7257 33.7045 41.7318Z" fill="#2D9CDB"/>
<defs>
<filter id="filter0_d" x="0" y="0" width="67" height="66.8235" filterUnits="userSpaceOnUse" color-interpolation-filters="sRGB">
<feFlood flood-opacity="0" result="BackgroundImageFix"/>
<feColorMatrix in="SourceAlpha" type="matrix" values="0 0 0 0 0 0 0 0 0 0 0 0 0 0 0 0 0 0 127 0"/>
<feOffset/>
<feGaussianBlur stdDeviation="2"/>
<feColorMatrix type="matrix" values="0 0 0 0 0 0 0 0 0 0 0 0 0 0 0 0 0 0 0.15 0"/>
<feBlend mode="normal" in2="BackgroundImageFix" result="effect1_dropShadow"/>
<feBlend mode="normal" in="SourceGraphic" in2="effect1_dropShadow" result="shape"/>
</filter>
</defs>
</svg>
