<svg width="67" height="69" viewBox="0 0 67 69" fill="none" xmlns="http://www.w3.org/2000/svg">
<g filter="url(#filter0_d)">
<rect x="4" y="4" width="59" height="60.4027" rx="5" fill="white"/>
</g>
<path d="M32.2467 21C34.6518 21 36.8712 21.5921 38.9007 22.7743C40.9301 23.9564 42.539 25.5632 43.7212 27.5948C44.9033 29.6263 45.4975 31.8436 45.4975 34.2487C45.4975 36.6539 44.9054 38.8732 43.7232 40.9027C42.5411 42.9322 40.9342 44.5411 38.9027 45.7232C36.8712 46.9054 34.6539 47.4975 32.2487 47.4975C29.8436 47.4975 27.6242 46.9054 25.5948 45.7232C23.5633 44.5411 21.9564 42.9342 20.7743 40.9027C19.5921 38.8712 19 36.6539 19 34.2487C19 31.8436 19.5921 29.6242 20.7743 27.5948C21.9564 25.5653 23.5633 23.9564 25.5948 22.7743C27.6263 21.5921 29.8415 21 32.2467 21ZM32.2467 43.7121C33.9413 43.7121 35.5196 43.2874 36.9794 42.4401C38.4392 41.5928 39.5908 40.4392 40.4401 38.9794C41.2874 37.5196 41.7121 35.9434 41.7121 34.2467C41.7121 32.55 41.2874 30.9738 40.4401 29.514C39.5928 28.0541 38.4392 26.9026 36.9794 26.0533C35.5196 25.2059 33.9434 24.7813 32.2467 24.7813C30.55 24.7813 28.9738 25.2059 27.514 26.0533C26.0542 26.9006 24.9026 28.0541 24.0533 29.514C23.2059 30.9738 22.7813 32.55 22.7813 34.2467C22.7813 35.9434 23.2059 37.5196 24.0533 38.9794C24.9006 40.4392 26.0542 41.5908 27.514 42.4401C28.9738 43.2895 30.5521 43.7121 32.2467 43.7121ZM37.8084 28.2154C38.0064 28.0174 38.1922 28.0174 38.3698 28.2154C38.5475 28.4135 38.5577 28.6095 38.3984 28.8075L33.9025 34.0119C33.9822 34.5632 33.8433 35.0185 33.4881 35.3717C33.1328 35.7269 32.7285 35.9046 32.2753 35.9046C31.822 35.9046 31.428 35.7371 31.0931 35.4023C30.7583 35.0675 30.5909 34.6734 30.5909 34.2201C30.5909 33.7669 30.7685 33.3626 31.1237 33.0074C31.479 32.6521 31.9118 32.4949 32.4243 32.5337L33.9617 31.3515C32.898 30.3654 31.6546 29.8733 30.2356 29.8733C29.2494 29.8733 28.3225 30.1306 27.4548 30.6431C26.587 31.1555 25.9072 31.8456 25.4131 32.7134C24.919 33.5811 24.6944 34.5672 24.7332 35.6718C24.6944 35.3166 24.674 34.9225 24.674 34.4897C24.674 33.1095 25.019 31.8191 25.7091 30.6145C26.3992 29.4119 27.3262 28.4564 28.4899 27.7458C29.6537 27.0353 30.9257 26.6821 32.3059 26.6821C34.0802 26.6821 35.736 27.3518 37.2734 28.6932L37.8084 28.2154ZM32.8388 34.7816V34.8408C33.0348 34.6428 33.1348 34.4264 33.1348 34.1895C33.1348 33.9527 33.0471 33.7567 32.8694 33.5974C32.6918 33.4382 32.4856 33.3606 32.2487 33.3606C32.0119 33.3606 31.8159 33.4402 31.6566 33.5974C31.4994 33.7546 31.4198 33.9527 31.4198 34.1895C31.4198 34.4264 31.4994 34.6326 31.6566 34.8102C31.8139 34.9878 32.0119 35.0756 32.2487 35.0756C32.4856 35.0756 32.6816 34.9776 32.8388 34.7816Z" fill="#2D9CDB"/>
<defs>
<filter id="filter0_d" x="0" y="0" width="67" height="68.4027" filterUnits="userSpaceOnUse" color-interpolation-filters="sRGB">
<feFlood flood-opacity="0" result="BackgroundImageFix"/>
<feColorMatrix in="SourceAlpha" type="matrix" values="0 0 0 0 0 0 0 0 0 0 0 0 0 0 0 0 0 0 127 0"/>
<feOffset/>
<feGaussianBlur stdDeviation="2"/>
<feColorMatrix type="matrix" values="0 0 0 0 0 0 0 0 0 0 0 0 0 0 0 0 0 0 0.15 0"/>
<feBlend mode="normal" in2="BackgroundImageFix" result="effect1_dropShadow"/>
<feBlend mode="normal" in="SourceGraphic" in2="effect1_dropShadow" result="shape"/>
</filter>
</defs>
</svg>
