<svg width="1440" height="869" viewBox="0 0 1440 869" fill="none" xmlns="http://www.w3.org/2000/svg">
<g clip-path="url(#clip0)">
<rect width="1440" height="869" fill="white"/>
<g opacity="0.5">
<mask id="path-1-outside-1" maskUnits="userSpaceOnUse" x="-1" y="-1" width="1442" height="852" fill="black">
<rect fill="white" x="-1" y="-1" width="1442" height="852"/>
<path d="M0 0H1440V850H280C125.36 850 0 724.64 0 570V0Z"/>
</mask>
<path d="M0 0H1440V850H280C125.36 850 0 724.64 0 570V0Z" fill="#F7F9F9"/>
<path d="M0 0V-1H-1V0H0ZM1440 0H1441V-1H1440V0ZM1440 850V851H1441V850H1440ZM0 1H1440V-1H0V1ZM1439 0V850H1441V0H1439ZM1440 849H280V851H1440V849ZM280 849C125.913 849 1 724.087 1 570H-1C-1 725.192 124.808 851 280 851V849ZM1 570V0H-1V570H1Z" fill="#606470" mask="url(#path-1-outside-1)"/>
</g>
<path d="M711.17 407.787C584.79 188.891 865.042 318.949 1083.86 192.614C1302.68 66.2787 1377.2 -268.609 1503.58 -49.7126C1629.96 169.184 1555.03 449.049 1336.21 575.385C1117.39 701.72 837.55 626.684 711.17 407.787Z" fill="white"/>
<g opacity="0.2">
<rect x="6" y="284" width="3" height="3" fill="black"/>
<rect x="25" y="284" width="3" height="3" fill="black"/>
<rect x="44" y="284" width="3" height="3" fill="black"/>
<rect x="62" y="284" width="3" height="3" fill="black"/>
<rect x="81" y="284" width="3" height="3" fill="black"/>
<rect x="100" y="284" width="3" height="3" fill="black"/>
<rect x="119" y="284" width="3" height="3" fill="black"/>
<rect x="6" y="302" width="3" height="3" fill="black"/>
<rect x="25" y="302" width="3" height="3" fill="black"/>
<rect x="44" y="302" width="3" height="3" fill="black"/>
<rect x="62" y="302" width="3" height="3" fill="black"/>
<rect x="81" y="302" width="3" height="3" fill="black"/>
<rect x="100" y="302" width="3" height="3" fill="black"/>
<rect x="119" y="302" width="3" height="3" fill="black"/>
<rect x="6" y="320" width="3" height="3" fill="black"/>
<rect x="25" y="320" width="3" height="3" fill="black"/>
<rect x="44" y="320" width="3" height="3" fill="black"/>
<rect x="62" y="320" width="3" height="3" fill="black"/>
<rect x="81" y="320" width="3" height="3" fill="black"/>
<rect x="100" y="320" width="3" height="3" fill="black"/>
<rect x="119" y="320" width="3" height="3" fill="black"/>
<rect x="6" y="338" width="3" height="3" fill="black"/>
<rect x="25" y="338" width="3" height="3" fill="black"/>
<rect x="44" y="338" width="3" height="3" fill="black"/>
<rect x="62" y="338" width="3" height="3" fill="black"/>
<rect x="81" y="338" width="3" height="3" fill="black"/>
<rect x="100" y="338" width="3" height="3" fill="black"/>
<rect x="119" y="338" width="3" height="3" fill="black"/>
<rect x="6" y="356" width="3" height="3" fill="black"/>
<rect x="25" y="356" width="3" height="3" fill="black"/>
<rect x="44" y="356" width="3" height="3" fill="black"/>
<rect x="62" y="356" width="3" height="3" fill="black"/>
<rect x="81" y="356" width="3" height="3" fill="black"/>
<rect x="100" y="356" width="3" height="3" fill="black"/>
<rect x="119" y="356" width="3" height="3" fill="black"/>
<rect x="6" y="374" width="3" height="3" fill="black"/>
<rect x="25" y="374" width="3" height="3" fill="black"/>
<rect x="44" y="374" width="3" height="3" fill="black"/>
<rect x="62" y="374" width="3" height="3" fill="black"/>
<rect x="81" y="374" width="3" height="3" fill="black"/>
<rect x="100" y="374" width="3" height="3" fill="black"/>
<rect x="119" y="374" width="3" height="3" fill="black"/>
<rect x="6" y="392" width="3" height="3" fill="black"/>
<rect x="25" y="392" width="3" height="3" fill="black"/>
<rect x="44" y="392" width="3" height="3" fill="black"/>
<rect x="62" y="392" width="3" height="3" fill="black"/>
<rect x="81" y="392" width="3" height="3" fill="black"/>
<rect x="100" y="392" width="3" height="3" fill="black"/>
<rect x="119" y="392" width="3" height="3" fill="black"/>
<rect x="6" y="410" width="3" height="3" fill="black"/>
<rect x="25" y="410" width="3" height="3" fill="black"/>
<rect x="44" y="410" width="3" height="3" fill="black"/>
<rect x="62" y="410" width="3" height="3" fill="black"/>
<rect x="81" y="410" width="3" height="3" fill="black"/>
<rect x="100" y="410" width="3" height="3" fill="black"/>
<rect x="119" y="410" width="3" height="3" fill="black"/>
<rect x="6" y="428" width="3" height="3" fill="black"/>
<rect x="25" y="428" width="3" height="3" fill="black"/>
<rect x="44" y="428" width="3" height="3" fill="black"/>
<rect x="62" y="428" width="3" height="3" fill="black"/>
<rect x="81" y="428" width="3" height="3" fill="black"/>
<rect x="100" y="428" width="3" height="3" fill="black"/>
<rect x="119" y="428" width="3" height="3" fill="black"/>
<rect x="6" y="446" width="3" height="3" fill="black"/>
<rect x="25" y="446" width="3" height="3" fill="black"/>
<rect x="44" y="446" width="3" height="3" fill="black"/>
<rect x="62" y="446" width="3" height="3" fill="black"/>
<rect x="81" y="446" width="3" height="3" fill="black"/>
<rect x="100" y="446" width="3" height="3" fill="black"/>
<rect x="119" y="446" width="3" height="3" fill="black"/>
<rect x="6" y="464" width="3" height="3" fill="black"/>
<rect x="25" y="464" width="3" height="3" fill="black"/>
<rect x="44" y="464" width="3" height="3" fill="black"/>
<rect x="62" y="464" width="3" height="3" fill="black"/>
<rect x="81" y="464" width="3" height="3" fill="black"/>
<rect x="100" y="464" width="3" height="3" fill="black"/>
<rect x="119" y="464" width="3" height="3" fill="black"/>
<rect x="6" y="265" width="3" height="3" fill="black"/>
<rect x="25" y="265" width="3" height="3" fill="black"/>
<rect x="44" y="265" width="3" height="3" fill="black"/>
<rect x="62" y="265" width="3" height="3" fill="black"/>
<rect x="81" y="265" width="3" height="3" fill="black"/>
<rect x="100" y="265" width="3" height="3" fill="black"/>
<rect x="119" y="265" width="3" height="3" fill="black"/>
</g>
</g>
<defs>
<clipPath id="clip0">
<rect width="1440" height="869" fill="white"/>
</clipPath>
</defs>
</svg>
