<svg width="660" height="499" viewBox="0 0 660 499" fill="none" xmlns="http://www.w3.org/2000/svg">
<g filter="url(#filter0_d)">
<g filter="url(#filter1_d)">
<rect x="267" y="96" width="288.337" height="183" rx="15" fill="url(#paint0_linear)"/>
</g>
<path d="M342.517 156.01C343.101 156.078 343.687 156.145 344.272 156.213C350.073 156.895 355.277 159.044 359.839 162.682C365.617 167.289 369.42 173.207 370.954 180.433C373.1 190.552 370.896 199.709 364.277 207.69C360.051 212.784 354.641 216.103 348.224 217.75C345.865 218.356 343.466 218.626 341.024 218.661C336.324 218.726 331.837 217.81 327.615 215.773C319.187 211.706 313.638 205.138 310.882 196.203C310.855 196.114 310.838 196.023 310.799 195.869C311.434 196.133 312.018 196.376 312.604 196.621C315.85 197.973 319.094 199.331 322.344 200.673C322.618 200.785 322.74 200.938 322.807 201.221C323.681 204.857 326.848 207.611 330.497 207.924C334.792 208.292 338.679 205.584 339.784 201.401C339.99 200.618 340.013 199.782 340.09 198.968C340.11 198.764 340.139 198.629 340.316 198.5C343.68 196.087 347.038 193.664 350.401 191.254C350.552 191.146 350.768 191.084 350.955 191.084C356.818 191.055 361.829 186.582 362.525 180.744C363.247 174.692 359.41 169.147 353.541 167.758C347.308 166.284 340.883 170.323 339.533 176.591C339.352 177.434 339.325 178.31 339.215 179.17C339.196 179.326 339.161 179.502 339.076 179.627C336.719 183.087 334.352 186.542 331.996 190.002C331.874 190.179 331.755 190.241 331.537 190.237C329.807 190.21 328.19 190.633 326.726 191.566C326.462 191.736 326.262 191.743 325.982 191.628C320.668 189.4 315.349 187.182 310.031 184.964C309.933 184.924 309.831 184.897 309.73 184.862C309.73 184.648 309.73 184.434 309.73 184.22C309.754 184.156 309.784 184.094 309.796 184.029C309.975 182.902 310.091 181.764 310.338 180.653C311.877 173.689 315.355 167.866 320.803 163.262C325.511 159.289 330.95 156.942 337.08 156.213C337.678 156.141 338.276 156.078 338.873 156.01C340.088 156.01 341.302 156.01 342.517 156.01Z" fill="white"/>
<path d="M511.861 179.223C511.824 179.358 511.784 179.491 511.751 179.626C511.363 181.159 510.011 182.106 508.41 181.967C506.825 181.828 505.698 180.694 505.563 179.099C505.44 177.651 506.107 176.422 507.313 175.878C508.58 175.306 510.077 175.574 511.002 176.538C511.419 176.97 511.658 177.493 511.785 178.073C511.803 178.15 511.836 178.222 511.861 178.297C511.861 178.604 511.861 178.914 511.861 179.223ZM511.299 178.793C511.307 177.242 510.223 176.123 508.707 176.118C507.211 176.112 506.1 177.225 506.088 178.735C506.076 180.305 507.16 181.437 508.684 181.447C510.192 181.456 511.29 180.341 511.299 178.793Z" fill="white"/>
<path d="M490.723 192.375C491.055 191.632 491.356 190.965 491.653 190.296C493.74 185.607 495.829 180.92 497.906 176.227C498.027 175.954 498.168 175.869 498.459 175.873C499.721 175.888 500.982 175.88 502.245 175.88C502.373 175.88 502.5 175.88 502.647 175.88C502.647 183.533 502.647 191.146 502.647 198.776C501.136 198.776 499.642 198.776 498.099 198.776C498.099 194.18 498.099 189.586 498.099 184.992C498.072 184.986 498.043 184.98 498.016 184.974C497.807 185.42 497.595 185.863 497.389 186.311C495.618 190.126 493.846 193.941 492.087 197.76C491.954 198.049 491.803 198.163 491.477 198.147C490.835 198.117 490.193 198.126 489.551 198.144C489.3 198.151 489.178 198.068 489.072 197.837C487.159 193.669 485.236 189.505 483.315 185.341C483.28 185.267 483.244 185.194 483.143 185.125C483.143 189.665 483.143 194.207 483.143 198.768C481.595 198.768 480.1 198.768 478.576 198.768C478.576 191.152 478.576 183.532 478.576 175.875C479.112 175.875 479.635 175.875 480.156 175.875C481.026 175.875 481.894 175.886 482.761 175.867C483.032 175.861 483.151 175.959 483.261 176.199C485.682 181.466 488.114 186.729 490.542 191.995C490.586 192.095 490.635 192.19 490.723 192.375Z" fill="white"/>
<path d="M447.541 180C444.025 180 440.54 180 437.033 180C437.033 181.71 437.033 183.396 437.033 185.122C440.031 185.122 443.035 185.122 446.065 185.122C446.065 186.523 446.065 187.882 446.065 189.271C443.059 189.271 440.061 189.271 437.039 189.271C437.039 191.065 437.039 192.829 437.039 194.633C440.534 194.633 444.027 194.633 447.545 194.633C447.545 196.031 447.545 197.393 447.545 198.776C442.447 198.776 437.361 198.776 432.258 198.776C432.258 191.146 432.258 183.535 432.258 175.901C437.357 175.901 442.434 175.901 447.541 175.901C447.541 177.251 447.541 178.599 447.541 180Z" fill="white"/>
<path d="M473.729 198.793C472.037 198.793 470.408 198.787 468.778 198.799C468.543 198.801 468.508 198.66 468.454 198.504C468.018 197.235 467.574 195.967 467.15 194.695C467.067 194.446 466.959 194.345 466.677 194.347C463.952 194.359 461.225 194.359 458.5 194.349C458.237 194.347 458.133 194.434 458.054 194.677C457.632 195.964 457.196 197.244 456.748 198.523C456.71 198.635 456.557 198.783 456.457 198.785C454.899 198.801 453.338 198.795 451.78 198.793C451.759 198.793 451.738 198.778 451.684 198.756C451.867 198.257 452.046 197.757 452.231 197.258C454.822 190.287 457.416 183.319 459.994 176.343C460.129 175.978 460.29 175.863 460.671 175.87C461.956 175.895 463.242 175.893 464.527 175.872C464.863 175.866 465.021 175.965 465.142 176.283C467.854 183.412 470.575 190.534 473.297 197.661C473.436 198.022 473.575 198.386 473.729 198.793ZM465.694 190.498C464.645 187.458 463.613 184.467 462.548 181.386C461.503 184.48 460.492 187.475 459.472 190.498C461.564 190.498 463.595 190.498 465.694 190.498Z" fill="white"/>
<path d="M389.609 193.09C390.855 193.74 392.148 194.208 393.509 194.471C395.006 194.758 396.514 194.895 397.992 194.42C398.483 194.262 398.975 193.973 399.349 193.62C400.206 192.812 400.142 191.439 399.191 190.74C398.607 190.312 397.922 189.996 397.241 189.732C395.903 189.213 394.524 188.796 393.185 188.279C391.968 187.811 390.84 187.176 389.932 186.208C388.784 184.985 388.402 183.498 388.473 181.87C388.612 178.678 390.641 176.553 393.793 175.835C397.145 175.073 400.385 175.498 403.436 177.135C403.687 177.27 403.921 177.436 404.16 177.592C404.218 177.631 404.268 177.681 404.349 177.749C403.677 178.939 403.01 180.123 402.381 181.236C401.456 180.827 400.59 180.377 399.677 180.059C398.314 179.583 396.898 179.396 395.465 179.727C394.51 179.949 393.737 180.424 393.496 181.463C393.299 182.304 393.517 183.02 394.213 183.558C394.998 184.164 395.938 184.451 396.846 184.796C398.399 185.388 399.976 185.928 401.49 186.607C402.9 187.238 404.067 188.208 404.619 189.724C405.419 191.915 405.078 195.487 402.273 197.476C400.989 198.386 399.548 198.882 398.007 199.063C394.707 199.452 391.565 198.897 388.608 197.36C388.535 197.321 388.468 197.269 388.39 197.238C388.149 197.146 388.126 197.007 388.217 196.768C388.647 195.647 389.056 194.519 389.472 193.394C389.511 193.296 389.559 193.202 389.609 193.09Z" fill="white"/>
<path d="M415.366 180.002C413.03 180.002 410.76 180.002 408.471 180.002C408.471 178.624 408.471 177.276 408.471 175.901C414.641 175.901 420.797 175.901 426.975 175.901C426.975 177.267 426.975 178.617 426.975 180.004C424.695 180.004 422.427 180.004 420.118 180.004C420.118 186.281 420.118 192.523 420.118 198.778C418.519 198.778 416.965 198.778 415.366 198.778C415.366 192.534 415.366 186.295 415.366 180.002Z" fill="white"/>
<path d="M358.73 179.282C358.73 183.635 355.227 187.153 350.897 187.151C346.612 187.149 343.096 183.595 343.1 179.271C343.103 174.923 346.623 171.374 350.926 171.378C355.239 171.38 358.73 174.917 358.73 179.282ZM350.963 173.355C347.765 173.349 345.098 175.963 345.088 179.118C345.077 182.438 347.64 185.107 350.799 185.163C353.935 185.219 356.751 182.715 356.786 179.319C356.817 176.025 354.197 173.361 350.963 173.355Z" fill="white"/>
<path d="M325.404 201.972C325.775 202.122 326.112 202.257 326.448 202.396C327.347 202.77 328.243 203.149 329.144 203.521C331.663 204.564 334.469 203.436 335.509 200.967C336.566 198.454 335.432 195.6 332.94 194.529C331.653 193.976 330.357 193.449 329.053 192.905C330.276 192.211 332.911 192.176 334.886 193.468C337.312 195.056 338.456 198.059 337.667 200.892C336.905 203.636 334.398 205.625 331.671 205.743C328.405 205.882 326.137 203.762 325.404 201.972Z" fill="white"/>
<path d="M508.164 179.105C508.164 179.504 508.164 179.882 508.164 180.281C507.99 180.281 507.842 180.281 507.674 180.281C507.674 179.251 507.674 178.223 507.674 177.18C508.164 177.18 508.657 177.151 509.145 177.19C509.469 177.217 509.707 177.425 509.801 177.762C509.902 178.123 509.834 178.443 509.574 178.715C509.5 178.792 509.414 178.854 509.309 178.943C509.533 179.377 509.761 179.815 509.99 180.256C509.433 180.37 509.433 180.37 509.192 179.89C509.134 179.774 509.074 179.656 509.016 179.541C508.769 179.049 508.769 179.049 508.164 179.105ZM508.179 178.598C508.561 178.547 508.976 178.744 509.203 178.331C509.277 178.2 509.265 177.923 509.172 177.818C508.904 177.516 508.53 177.662 508.181 177.654C508.179 177.978 508.179 178.258 508.179 178.598Z" fill="white"/>
</g>
<g filter="url(#filter2_d)">
<rect x="144" y="203" width="247" height="156.765" rx="12" fill="url(#paint1_linear)"/>
<g clip-path="url(#clip0)">
<path d="M290.732 267.713C290.732 272.494 290.809 276.433 290.709 280.369C290.616 284.103 291.543 287.405 293.712 290.305C294.116 290.846 294.502 291.405 294.867 291.979C295.767 293.392 295.628 294.408 294.431 295.499C291.943 297.769 289.456 300.043 286.976 302.325C285.364 303.81 284.442 303.798 282.809 302.298C281.092 300.723 279.646 298.896 278.39 296.878C277.448 295.364 277.434 295.373 276.244 296.582C273.197 299.684 269.861 302.252 265.662 303.165C262.144 303.93 258.593 304.199 255.068 303.349C249.014 301.89 245.01 298.182 243.45 291.371C242.347 286.555 242.488 281.957 244.143 277.442C246.332 271.472 250.649 267.925 256.104 265.869C260.934 264.05 265.989 263.54 271.03 262.954C272.159 262.824 273.29 262.721 274.421 262.605C274.845 262.561 275.245 262.541 275.224 261.864C275.163 259.776 275.352 257.679 274.984 255.606C274.4 252.325 272.54 250.264 269.504 249.705C264.431 248.775 259.68 251.446 258.765 256.724C258.509 258.206 257.666 258.728 256.269 258.577C253.033 258.228 249.795 257.873 246.561 257.494C244.956 257.307 244.316 256.325 244.643 254.616C245.964 247.724 249.625 242.775 255.554 240.048C263.682 236.308 272.025 236.001 280.338 239.331C286.779 241.914 290.149 247.108 290.587 254.533C290.864 259.205 290.671 263.883 290.732 267.713ZM275.22 276.214C275.22 275.024 275.204 273.833 275.227 272.644C275.238 272.08 275.093 271.834 274.52 271.856C271.221 271.977 267.933 272.198 264.842 273.621C259.646 276.012 257.362 282.048 259.512 287.722C260.53 290.406 262.412 291.888 265.096 292.003C268.805 292.166 271.289 290.007 273.122 286.77C274.956 283.527 275.256 279.904 275.22 276.214Z" fill="white"/>
<path d="M267.62 325.141C257.594 325.022 248.315 323.245 239.409 319.353C232.108 316.165 225.475 311.786 219.491 306.254C218.866 305.678 217.713 305.026 218.335 304.041C218.955 303.059 219.861 303.999 220.606 304.432C227.144 308.233 233.952 311.305 241.112 313.472C252.207 316.83 263.491 318.184 274.986 317.344C280.577 316.938 286.102 315.993 291.539 314.545C296.117 313.327 300.577 311.69 304.948 309.767C305.366 309.582 305.804 309.403 306.247 309.351C306.904 309.275 307.603 309.371 307.885 310.134C308.157 310.872 307.994 311.559 307.365 312.098C305.577 313.627 303.611 314.843 301.608 315.993C293.78 320.483 285.432 323.179 276.669 324.427C273.515 324.872 270.349 325.104 267.62 325.141Z" fill="#FDB104"/>
<path d="M306.153 305.742C303.907 305.602 301.713 306.151 299.49 306.286C299.074 306.311 298.5 306.53 298.329 305.873C298.182 305.311 298.595 304.982 298.986 304.703C300.941 303.305 303.103 302.498 305.399 302.064C308.251 301.525 311.089 301.496 313.96 302.027C316.203 302.443 316.885 303.047 316.714 305.454C316.319 311.018 314.568 315.976 310.812 319.944C310.349 320.434 309.784 321.273 309.114 320.756C308.417 320.217 309.068 319.398 309.298 318.753C310.315 315.885 311.403 313.044 311.932 310.004C312.009 309.563 312.093 309.117 312.116 308.669C312.193 307.079 311.748 306.432 310.329 306.02C308.953 305.619 307.545 305.777 306.153 305.742Z" fill="#FDB104"/>
</g>
</g>
<g filter="url(#filter3_d)">
<rect x="50" y="314.473" width="210.964" height="133.894" rx="12" fill="url(#paint2_linear)"/>
</g>
<path d="M174.827 383.166C174.661 385.162 174.993 387.158 175.991 389.153C177.488 393.311 180.481 396.47 184.971 398.466C183.641 402.789 181.479 406.781 178.818 410.605C175.16 415.594 171.501 418.255 168.009 418.255C166.346 418.255 164.35 417.756 162.022 416.758C159.361 415.761 157.033 415.262 155.204 415.262C153.208 415.262 150.88 415.927 148.053 416.925C145.725 417.923 143.896 418.255 142.732 418.255C140.237 418.421 137.576 417.091 134.916 414.264C132.754 412.268 130.592 409.275 128.596 405.617C126.933 402.623 125.603 399.962 124.772 397.468C123.109 392.812 122.443 388.322 122.443 383.998C122.443 379.342 123.275 375.184 125.27 371.692C126.933 368.532 129.262 366.038 132.255 364.375C135.248 362.712 138.242 361.88 141.568 361.714C143.23 361.714 146.058 362.379 149.716 363.71C152.044 364.707 153.541 365.04 154.206 365.04C154.871 365.04 156.202 364.707 158.364 363.876C160.359 363.211 162.022 362.546 163.352 362.213C165.348 361.714 167.344 361.548 169.007 361.548C175.326 362.213 179.982 364.707 183.142 369.031C177.488 372.357 174.661 377.18 174.827 383.166ZM165.348 355.727V355.894C161.689 360.051 157.865 361.88 153.874 361.548C153.375 357.224 154.705 353.233 158.031 349.574C159.361 348.078 161.024 346.747 163.186 345.583C165.182 344.586 167.344 343.92 169.339 343.754C169.672 348.244 168.341 352.235 165.348 355.727Z" fill="white"/>
<defs>
<filter id="filter0_d" x="171" y="0" width="488.337" height="383" filterUnits="userSpaceOnUse" color-interpolation-filters="sRGB">
<feFlood flood-opacity="0" result="BackgroundImageFix"/>
<feColorMatrix in="SourceAlpha" type="matrix" values="0 0 0 0 0 0 0 0 0 0 0 0 0 0 0 0 0 0 127 0"/>
<feOffset dx="4" dy="4"/>
<feGaussianBlur stdDeviation="50"/>
<feColorMatrix type="matrix" values="0 0 0 0 0.176471 0 0 0 0 0.611765 0 0 0 0 0.858824 0 0 0 0.3 0"/>
<feBlend mode="normal" in2="BackgroundImageFix" result="effect1_dropShadow"/>
<feBlend mode="normal" in="SourceGraphic" in2="effect1_dropShadow" result="shape"/>
</filter>
<filter id="filter1_d" x="217" y="46" width="388.337" height="283" filterUnits="userSpaceOnUse" color-interpolation-filters="sRGB">
<feFlood flood-opacity="0" result="BackgroundImageFix"/>
<feColorMatrix in="SourceAlpha" type="matrix" values="0 0 0 0 0 0 0 0 0 0 0 0 0 0 0 0 0 0 127 0"/>
<feOffset/>
<feGaussianBlur stdDeviation="25"/>
<feColorMatrix type="matrix" values="0 0 0 0 0 0 0 0 0 0 0 0 0 0 0 0 0 0 0.05 0"/>
<feBlend mode="normal" in2="BackgroundImageFix" result="effect1_dropShadow"/>
<feBlend mode="normal" in="SourceGraphic" in2="effect1_dropShadow" result="shape"/>
</filter>
<filter id="filter2_d" x="94" y="153" width="347" height="256.765" filterUnits="userSpaceOnUse" color-interpolation-filters="sRGB">
<feFlood flood-opacity="0" result="BackgroundImageFix"/>
<feColorMatrix in="SourceAlpha" type="matrix" values="0 0 0 0 0 0 0 0 0 0 0 0 0 0 0 0 0 0 127 0"/>
<feOffset/>
<feGaussianBlur stdDeviation="25"/>
<feColorMatrix type="matrix" values="0 0 0 0 0 0 0 0 0 0 0 0 0 0 0 0 0 0 0.05 0"/>
<feBlend mode="normal" in2="BackgroundImageFix" result="effect1_dropShadow"/>
<feBlend mode="normal" in="SourceGraphic" in2="effect1_dropShadow" result="shape"/>
</filter>
<filter id="filter3_d" x="0" y="264.473" width="310.964" height="233.894" filterUnits="userSpaceOnUse" color-interpolation-filters="sRGB">
<feFlood flood-opacity="0" result="BackgroundImageFix"/>
<feColorMatrix in="SourceAlpha" type="matrix" values="0 0 0 0 0 0 0 0 0 0 0 0 0 0 0 0 0 0 127 0"/>
<feOffset/>
<feGaussianBlur stdDeviation="25"/>
<feColorMatrix type="matrix" values="0 0 0 0 0 0 0 0 0 0 0 0 0 0 0 0 0 0 0.05 0"/>
<feBlend mode="normal" in2="BackgroundImageFix" result="effect1_dropShadow"/>
<feBlend mode="normal" in="SourceGraphic" in2="effect1_dropShadow" result="shape"/>
</filter>
<linearGradient id="paint0_linear" x1="266.812" y1="157.927" x2="541.796" y2="266.143" gradientUnits="userSpaceOnUse">
<stop stop-color="#156C9D"/>
<stop offset="1" stop-color="#3B6882"/>
</linearGradient>
<linearGradient id="paint1_linear" x1="144.416" y1="229.728" x2="390.726" y2="312.13" gradientUnits="userSpaceOnUse">
<stop stop-color="#323643"/>
<stop offset="1" stop-color="#898B91"/>
</linearGradient>
<linearGradient id="paint2_linear" x1="70.5" y1="381" x2="202" y2="397" gradientUnits="userSpaceOnUse">
<stop stop-color="#2D9CDB"/>
<stop offset="1" stop-color="#08C8F6"/>
</linearGradient>
<clipPath id="clip0">
<rect width="98.5854" height="88.1162" fill="white" transform="translate(218.156 237.025)"/>
</clipPath>
</defs>
</svg>
