<svg width="82" height="14" viewBox="0 0 82 14" fill="none" xmlns="http://www.w3.org/2000/svg">
<path d="M4.87884 10.013C4.86029 9.83501 4.84174 9.66791 4.82009 9.46536C5.03501 9.45234 5.1904 9.43353 5.34502 9.43353C6.28973 9.43064 7.23367 9.41328 8.17839 9.43643C10.2077 9.48706 11.8939 8.27614 12.5548 6.66518C13.5057 4.35183 12.2201 1.91551 9.97737 1.09232C9.35349 0.86373 8.72187 0.750159 8.05933 0.750159C5.84984 0.751606 3.64113 0.750159 1.43164 0.750159C1.3064 0.750159 1.1827 0.744372 1.05669 0.754499C0.712666 0.780541 0.667827 0.826837 0.650819 1.15308C0.646181 1.2529 0.650819 1.35273 0.650819 1.45328C0.650819 5.22133 0.650819 8.98721 0.650819 12.7553C0.650819 12.9506 0.650819 13.1466 0.650819 13.368C0.417346 13.368 0.251132 13.368 0.0965142 13.368C-0.0148107 12.9593 -0.0380033 0.843475 0.0702292 0.262606C0.241855 0.242352 0.431262 0.201843 0.618349 0.201843C3.18346 0.197503 5.74857 0.220651 8.31445 0.193163C10.6538 0.168568 12.694 1.7014 13.2839 3.69863C13.866 5.66982 13.3735 7.44643 11.74 8.87147C10.9569 9.55651 9.9735 9.92471 8.93292 9.99126C7.61017 10.0781 6.27041 10.013 4.87884 10.013Z" fill="white"/>
<path d="M1.3125 13.3651C1.3125 9.35402 1.3125 5.37763 1.3125 1.36508C1.49495 1.35061 1.64879 1.32891 1.80341 1.32891C4.0129 1.32602 6.22007 1.32457 8.42956 1.32891C9.97806 1.3318 11.4902 2.44001 12.0136 3.74498C12.3027 4.46618 12.3329 5.20402 12.1682 5.90353C11.8598 7.21283 11.0472 8.20241 9.63094 8.64728C9.30083 8.75145 8.94521 8.82668 8.59809 8.83391C7.47557 8.85706 6.35304 8.84549 5.23206 8.84259C5.05889 8.84259 4.85712 8.87153 4.81691 8.63426C4.78444 8.43895 4.90814 8.28198 5.1362 8.26172C5.32947 8.24436 5.52816 8.25449 5.72298 8.25449C6.6128 8.25304 7.50495 8.23568 8.39477 8.25738C9.77087 8.29066 10.9753 7.38789 11.3658 6.30934C12.0515 4.41193 11.2915 3.04837 9.68583 2.19551C9.37891 2.03203 8.98309 1.94812 8.6267 1.94378C6.48988 1.91918 4.35229 1.92931 2.21392 1.92786C2.14434 1.92786 2.07477 1.94378 1.94179 1.96114C1.92788 2.16658 1.90159 2.37563 1.90159 2.58252C1.8985 5.93318 1.90005 9.2824 1.90005 12.6331C1.90005 12.7503 1.90469 12.866 1.8985 12.9839C1.88072 13.3709 1.84052 13.3984 1.3125 13.3651Z" fill="white"/>
<path d="M3.10313 13.3664C2.87894 13.3664 2.71427 13.3664 2.51172 13.3664C2.51172 9.75385 2.51172 6.17966 2.51172 2.55701C2.70963 2.5382 2.89749 2.50348 3.08612 2.50348C4.81398 2.49914 6.54338 2.54109 8.26969 2.48901C9.71536 2.44561 10.9152 3.57118 11.069 4.8067C11.2036 5.88742 10.5967 7.2271 9.19121 7.57071C8.81781 7.66185 8.42817 7.72406 8.0424 7.73419C7.18814 7.75878 6.33155 7.74142 5.47729 7.74142C5.30103 7.74142 5.12399 7.74142 4.96628 7.74142C4.72507 7.23723 4.78228 7.1403 5.29639 7.13741C6.25811 7.13307 7.22061 7.11281 8.18233 7.14175C9.24301 7.17358 10.0834 6.54786 10.3423 5.73262C10.5975 4.9275 10.3655 4.1072 9.55147 3.47714C9.17961 3.18851 8.74359 3.06264 8.27123 3.05975C6.72119 3.05252 5.17192 3.05541 3.62187 3.05975C3.46726 3.05975 3.31341 3.09447 3.10468 3.11907C3.10313 6.5493 3.10313 9.94337 3.10313 13.3664Z" fill="white"/>
<path d="M4.85772 6.4756C4.83452 6.01336 4.86545 5.96128 5.27132 5.95839C6.21603 5.94971 7.15998 5.95694 8.10469 5.95405C8.2825 5.95405 8.46418 5.9555 8.6358 5.92222C8.89556 5.87158 9.08806 5.73125 9.12053 5.46288C9.14063 5.29795 9.15919 5.1294 9.14991 4.96447C9.11898 4.44292 8.88551 4.23748 8.29719 4.23025C7.38881 4.22157 6.47966 4.22736 5.57128 4.22736C5.20097 4.22736 4.82988 4.22736 4.40855 4.22736C4.39309 4.48198 4.36835 4.69248 4.36835 4.90226C4.36526 7.48687 4.3668 10.0708 4.3668 12.6539C4.3668 12.7711 4.37299 12.8869 4.36526 13.0048C4.34052 13.3715 4.27867 13.4091 3.77539 13.3484C3.77539 10.1308 3.77539 6.90818 3.77539 3.65734C3.94547 3.64432 4.08385 3.62551 4.22146 3.62551C5.55736 3.62406 6.89326 3.63129 8.22993 3.62261C8.87701 3.61827 9.33854 3.87001 9.65705 4.39445C10.0475 5.03898 9.76219 6.10089 9.08265 6.45173C8.97905 6.50526 8.84918 6.53275 8.72935 6.53275C7.48313 6.53709 6.23691 6.53419 4.98914 6.5313C4.95667 6.53058 4.9242 6.50598 4.85772 6.4756Z" fill="white"/>
<path d="M59.9004 3.12068C59.7845 3.20749 59.6778 3.28706 59.5487 3.38254C59.4451 3.30297 59.3446 3.23787 59.2611 3.15974C58.8769 2.80023 58.5243 2.40961 58.1123 2.08192C57.3415 1.46633 56.4339 1.10826 55.4482 0.873884C54.3752 0.619257 53.3215 0.661213 52.2871 0.940436C50.5917 1.39978 49.2279 2.30906 48.3443 3.76666C47.6941 4.83725 47.2929 5.99609 47.4228 7.2374C47.6794 9.69109 48.9473 11.5089 51.391 12.5607C52.6713 13.1112 54.0087 13.2154 55.3547 12.9636C56.8034 12.6931 58.0373 12.0044 59.0114 10.944C59.1042 10.8441 59.1768 10.7284 59.2696 10.6293C59.4412 10.4499 59.6198 10.4311 59.7775 10.5743C59.9414 10.7248 59.8641 10.8362 59.7404 10.9946C58.9897 11.9538 57.9956 12.6113 56.8591 13.104C55.5912 13.6544 54.243 13.776 52.897 13.5778C51.5008 13.3709 50.2345 12.8059 49.1847 11.8901C48.2106 11.0431 47.5372 10.0231 47.1429 8.82231C46.7711 7.69096 46.7185 6.53935 47.0069 5.42535C47.5271 3.41003 48.7625 1.86057 50.7764 0.897033C52.2809 0.178723 53.8711 -0.00718266 55.4954 0.301698C57.3005 0.6453 58.7679 1.54735 59.8533 2.96154C59.8695 2.98903 59.8711 3.02665 59.9004 3.12068Z" fill="white"/>
<path d="M58.9542 10.1519C57.4273 12.2353 54.7262 13.0621 52.1889 12.3105C49.6501 11.5575 47.9933 9.46401 47.9902 6.9105C47.9887 4.35844 49.6083 2.32286 51.9972 1.57128C54.6489 0.735782 57.3802 1.50039 58.9882 3.70668C58.8784 3.79782 58.7671 3.89331 58.6303 4.00688C58.5298 3.93599 58.4138 3.8839 58.3411 3.79999C57.9755 3.37103 57.5657 2.99054 57.0733 2.69034C56.4339 2.30044 55.7776 1.96769 54.9929 1.90982C54.6257 1.88233 54.2561 1.74489 53.8982 1.77527C51.8008 1.95467 50.1441 2.79667 49.1684 4.62609C48.7656 5.38056 48.5136 6.17194 48.5662 7.01177C48.6775 8.79923 49.4893 10.2192 51.1143 11.2269C52.3976 12.0219 53.8186 12.1181 55.2403 11.8873C56.3953 11.7007 57.3864 11.0923 58.1494 10.2199C58.1834 10.1809 58.219 10.1447 58.253 10.1056C58.5669 9.75842 58.6117 9.76131 58.9542 10.1519Z" fill="white"/>
<path d="M58.0102 4.36809C57.837 4.4491 57.6971 4.51276 57.5455 4.58365C57.0098 3.91453 56.3488 3.40311 55.5038 3.13763C53.8053 2.60595 52.27 2.88445 50.9882 4.06499C48.8692 6.01593 49.4884 9.39842 52.2622 10.5775C53.9855 11.3089 55.9437 10.8994 57.2177 9.5894C57.2533 9.55323 57.2703 9.50259 57.3043 9.46642C57.5997 9.15465 57.6715 9.15754 57.9823 9.48957C57.1528 10.9486 54.9464 11.7436 53.3531 11.4752C50.6001 11.0115 49.1622 8.94632 49.139 6.94402C49.1127 4.67118 50.8544 2.79403 53.0601 2.39689C55.0879 2.03304 57.0817 2.83598 58.0102 4.36809Z" fill="white"/>
<path d="M56.6474 8.60413C57.0888 8.90144 57.0996 8.94484 56.819 9.23419C54.7896 11.3276 51.3988 10.4538 50.4997 8.06666C49.8944 6.46005 50.6497 4.44546 52.5152 3.6917C53.9887 3.09637 55.7011 3.39729 56.7942 4.57856C57.1135 4.92216 57.112 4.93374 56.6164 5.18547C55.7915 4.19734 54.6767 3.83421 53.3594 4.03241C52.6458 4.13947 52.0884 4.51201 51.6068 5.01765C50.6389 6.03326 50.6126 7.93067 51.7862 8.98969C52.4935 9.62698 53.3362 9.9402 54.3265 9.84906C55.2867 9.75864 56.0188 9.28193 56.6474 8.60413Z" fill="white"/>
<path d="M63.2574 0.0415039C63.4507 0.0415039 63.62 0.0415039 63.7777 0.0415039C63.9122 0.428509 63.9323 13.0948 63.7993 13.6076C63.637 13.6076 63.4661 13.6076 63.2559 13.6076C63.2574 9.08512 63.2574 4.57995 63.2574 0.0415039Z" fill="white"/>
<path d="M61.328 13.6105C61.1749 13.6178 61.0056 13.625 60.7969 13.6337C60.7969 9.0851 60.7969 4.57848 60.7969 0.0400391C60.9917 0.0400391 61.161 0.0400391 61.3233 0.0400391C61.4563 0.430661 61.4656 13.1136 61.328 13.6105Z" fill="white"/>
<path d="M62.5661 0.0693924C62.5661 4.59337 62.5661 9.08407 62.5661 13.569C62.069 13.65 62.0319 13.6283 62.0025 13.2341C61.9917 13.101 61.9979 12.9679 61.9979 12.834C61.9979 8.82004 61.9979 4.80604 61.9979 0.790596C61.9979 0.657495 61.9917 0.524394 62.004 0.39057C62.0365 0.0447978 62.086 0.0158627 62.5661 0.0693924Z" fill="white"/>
<path d="M64.9816 13.6082C64.5324 13.6169 64.5 13.5995 64.466 13.2805C64.4505 13.1329 64.4567 12.9803 64.4567 12.8313C64.4567 8.82017 64.4567 4.80761 64.4567 0.796507C64.4567 0.647492 64.4489 0.49486 64.4675 0.347292C64.5062 0.0413053 64.5634 0.0152627 64.9708 0.068069C65.0744 0.444223 65.0898 13.0707 64.9816 13.6082Z" fill="white"/>
<path d="M65.9141 13.5516C66.3462 12.5476 66.7652 11.5862 67.1711 10.6183C67.4981 9.8378 67.8012 9.04787 68.1251 8.26735C68.4506 7.48249 68.7907 6.70414 69.1193 5.92073C69.4664 5.09247 69.805 4.26059 70.1506 3.43233C70.592 2.37475 71.0327 1.31718 71.4788 0.262503C71.6349 -0.108588 71.9712 0.0295771 72.3207 0.00787587C74.2356 4.51594 76.0995 9.03558 78.0253 13.6073C77.7215 13.6073 77.5344 13.6073 77.3287 13.6073C75.5715 9.41245 73.8189 5.23135 72.0307 0.961282C71.8947 1.14212 71.7741 1.25425 71.7161 1.3888C71.0536 2.94911 70.3957 4.50871 69.747 6.07481C69.1154 7.59751 68.5008 9.12527 67.8708 10.6494C67.5097 11.5233 67.1355 12.3906 66.7652 13.2615C66.5921 13.6637 66.5194 13.6912 65.9141 13.5516Z" fill="white"/>
<path d="M75.7207 0.10797C76.2054 -0.120616 76.408 0.0443145 76.5549 0.390087C77.1478 1.7833 77.7408 3.17724 78.3229 4.5748C78.9499 6.08159 79.5568 7.59344 80.1853 9.10023C80.7411 10.4298 81.3155 11.7528 81.876 13.0809C81.9394 13.23 81.9595 13.3956 81.9997 13.549C81.4578 13.6936 81.4191 13.6705 81.2522 13.2755C80.6824 11.9286 80.0987 10.5853 79.5336 9.23694C79.1292 8.27196 78.7551 7.29758 78.3508 6.3326C77.8691 5.18244 77.3627 4.03951 76.8803 2.88934C76.544 2.09291 76.2302 1.28707 75.9032 0.487741C75.8529 0.366937 75.7911 0.252644 75.7207 0.10797Z" fill="white"/>
<path d="M79.2838 13.6165C79.0411 13.6165 78.8671 13.6165 78.6754 13.6165C76.7852 9.10117 74.9012 4.60034 73.0156 0.0980634C73.621 -0.0929072 73.6642 0.0083643 73.8652 0.443112C74.1954 1.15708 74.4783 1.88914 74.7837 2.61323C75.1447 3.46971 75.5127 4.32112 75.8691 5.17831C76.2595 6.11581 76.6352 7.05691 77.0272 7.99441C77.5923 9.34277 78.1683 10.6861 78.738 12.033C78.905 12.4301 79.0728 12.828 79.2274 13.2295C79.2668 13.3322 79.2606 13.4523 79.2838 13.6165Z" fill="white"/>
<path d="M80.6452 13.6033C80.4055 13.6033 80.2208 13.6033 80.029 13.6033C78.1381 9.09091 76.2587 4.606 74.3809 0.121083C74.9042 -0.0597605 75.0279 -0.0293794 75.2042 0.371369C75.45 0.933431 75.6735 1.50417 75.9054 2.07057C76.3035 3.03989 76.6963 4.00994 77.1021 4.97636C77.4307 5.75688 77.7817 6.528 78.1072 7.30852C78.5161 8.28652 78.9027 9.27248 79.3147 10.2505C79.7221 11.2184 80.1489 12.1768 80.5578 13.1447C80.6135 13.2771 80.6135 13.4275 80.6452 13.6033Z" fill="white"/>
<path d="M71.9812 2.30957C72.3701 2.65462 72.4474 2.94976 72.241 3.37438C71.8676 4.14043 71.5723 4.94048 71.2422 5.72534C70.8239 6.71781 70.4033 7.70955 69.9882 8.70347C69.5128 9.84061 69.0419 10.9792 68.5719 12.1178C68.4065 12.5164 68.2495 12.9186 68.0841 13.3171C67.9403 13.6636 67.8259 13.6955 67.2793 13.5443C68.8417 9.81023 70.4041 6.07979 71.9812 2.30957Z" fill="white"/>
<path d="M68.6465 13.5227C69.9793 10.334 71.3121 7.14758 72.6472 3.95605C73.0144 4.22226 73.135 4.50654 72.9928 4.84725C72.5328 5.95401 72.0604 7.05499 71.595 8.15885C71.2572 8.95529 70.9186 9.751 70.5854 10.5489C70.1965 11.482 69.8224 12.4202 69.4304 13.3534C69.2982 13.6681 69.159 13.6956 68.6465 13.5227Z" fill="white"/>
<path d="M69.998 13.5271C71.1036 10.8802 72.2075 8.23558 73.3154 5.58008C73.6888 5.89185 73.7846 6.18555 73.63 6.54651C72.9211 8.21388 72.206 9.87692 71.4963 11.5443C71.2566 12.1107 71.0239 12.6785 70.7951 13.2493C70.625 13.6739 70.5493 13.7086 69.998 13.5271Z" fill="white"/>
<path d="M76.2536 11.9328C74.729 11.9328 73.2594 11.9328 71.7812 11.9328C71.9436 11.3867 71.9622 11.3679 72.484 11.3664C73.4983 11.3635 74.5133 11.3635 75.5276 11.3664C76.0186 11.3693 76.0186 11.3766 76.2536 11.9328Z" fill="white"/>
<path d="M75.645 10.7926C75.5167 10.8085 75.3791 10.8374 75.2422 10.8389C74.4266 10.8432 73.6102 10.8461 72.7946 10.8389C72.2883 10.8345 72.2666 10.7969 72.4321 10.2652C72.5882 10.2551 72.7622 10.2334 72.9338 10.2334C73.6953 10.2305 74.4583 10.2233 75.2206 10.2377C75.6636 10.2464 75.7053 10.3159 75.645 10.7926Z" fill="white"/>
<path d="M75.2183 9.61508C74.4274 9.61508 73.6343 9.61508 72.8449 9.61508C72.7862 9.08919 72.8248 9.04 73.3312 9.03277C73.7927 9.02554 74.2543 9.02554 74.715 9.03277C75.1124 9.04 75.2214 9.16732 75.2183 9.61508Z" fill="white"/>
<path d="M21.8885 12.9621V3.49167C21.8885 3.23994 21.6705 3.03378 21.3991 3.03378H18.7335C18.4645 3.03378 18.2441 2.82979 18.2441 2.57588V0.707406C18.2441 0.455672 18.4622 0.249512 18.7335 0.249512H28.2549C28.5239 0.249512 28.7442 0.453502 28.7442 0.707406V2.57588C28.7442 2.82762 28.5262 3.03378 28.2549 3.03378H25.5893C25.3202 3.03378 25.0999 3.23777 25.0999 3.49167V12.9628C25.0999 13.2145 24.8819 13.4207 24.6105 13.4207H22.3778C22.108 13.42 21.8885 13.2145 21.8885 12.9621Z" fill="white"/>
<path d="M40.2239 13.42H37.8273C37.6387 13.42 37.4647 13.3173 37.3843 13.1567L35.4091 9.21792C35.1447 8.73253 34.7234 8.48948 34.149 8.48948H33.6704C33.4014 8.48948 33.1811 8.69347 33.1811 8.94737V12.9628C33.1811 13.2146 32.963 13.4207 32.6917 13.4207H30.5441C30.275 13.4207 30.0547 13.2167 30.0547 12.9628V0.708871C30.0547 0.457137 30.2727 0.250977 30.5441 0.250977H35.8575C37.331 0.250977 38.4396 0.597472 39.181 1.28829C39.9239 1.97912 40.2943 2.97882 40.2943 4.28668C40.2943 5.28349 40.0407 6.12622 39.5343 6.81704C39.2104 7.25902 38.8006 7.60913 38.3066 7.86448C38.0129 8.01639 37.9657 8.40339 38.2247 8.60449C38.5517 8.85767 38.8331 9.21864 39.0681 9.68377L40.663 12.7617C40.8215 13.067 40.5865 13.42 40.2239 13.42ZM36.8695 5.55548C37.1741 5.31966 37.3279 4.93265 37.3279 4.39808C37.3279 3.85048 37.1748 3.4548 36.8695 3.21174C36.5641 2.96869 36.06 2.84789 35.3589 2.84789H33.6372C33.3681 2.84789 33.1478 3.05188 33.1478 3.30578V5.4542C33.1478 5.70594 33.3658 5.9121 33.6372 5.9121H35.3589C36.0593 5.91065 36.5641 5.79347 36.8695 5.55548Z" fill="white"/>
<path d="M42.2656 12.9621V0.708871C42.2656 0.457137 42.4836 0.250977 42.755 0.250977H44.9552C45.2242 0.250977 45.4446 0.454967 45.4446 0.708871V12.9621C45.4446 13.2138 45.2266 13.42 44.9552 13.42H42.755C42.4844 13.42 42.2656 13.2146 42.2656 12.9621Z" fill="white"/>
<path d="M14.8574 0.153809H12.995C12.7955 0.153809 12.6154 0.266655 12.5412 0.440988L12.4129 0.738293C12.3417 0.901776 12.3773 1.09202 12.5072 1.21934C13.2857 1.98105 13.8353 2.94892 14.0557 4.0253C14.0603 4.047 14.0665 4.07015 14.0758 4.09185L15.3885 7.40201C15.5075 7.70076 15.271 8.01905 14.93 8.01905H13.5354C13.3746 8.01905 13.2207 8.08994 13.1295 8.21436C12.0534 9.69366 10.2405 10.6666 8.18793 10.6666H8.12608L7.25094 12.6928C7.12107 12.9944 7.35763 13.3214 7.70475 13.3214H9.83538C10.0395 13.3214 10.2227 13.2027 10.2938 13.0241L11.1434 10.8916C11.2146 10.7122 11.397 10.5943 11.6019 10.5943H16.3116C16.5156 10.5943 16.6989 10.7129 16.77 10.8916L17.6196 13.0241C17.6907 13.2035 17.8732 13.3214 18.0781 13.3214H20.1553C20.5025 13.3214 20.739 12.9922 20.6092 12.6928L15.3058 0.438818C15.2346 0.266655 15.0568 0.153809 14.8574 0.153809Z" fill="white"/>
<path d="M4.87884 10.013C4.86029 9.83501 4.84174 9.66791 4.82009 9.46536C5.03501 9.45234 5.1904 9.43353 5.34502 9.43353C6.28973 9.43064 7.23367 9.41328 8.17839 9.43643C10.2077 9.48706 11.8939 8.27614 12.5548 6.66518C13.5057 4.35183 12.2201 1.91551 9.97737 1.09232C9.35349 0.86373 8.72187 0.750159 8.05933 0.750159C5.84984 0.751606 3.64113 0.750159 1.43164 0.750159C1.3064 0.750159 1.1827 0.744372 1.05669 0.754499C0.712666 0.780541 0.667827 0.826837 0.650819 1.15308C0.646181 1.2529 0.650819 1.35273 0.650819 1.45328C0.650819 5.22133 0.650819 8.98721 0.650819 12.7553C0.650819 12.9506 0.650819 13.1466 0.650819 13.368C0.417346 13.368 0.251132 13.368 0.0965142 13.368C-0.0148107 12.9593 -0.0380033 0.843475 0.0702292 0.262606C0.241855 0.242352 0.431262 0.201843 0.618349 0.201843C3.18346 0.197503 5.74857 0.220651 8.31445 0.193163C10.6538 0.168568 12.694 1.7014 13.2839 3.69863C13.866 5.66982 13.3735 7.44643 11.74 8.87147C10.9569 9.55651 9.9735 9.92471 8.93292 9.99126C7.61017 10.0781 6.27041 10.013 4.87884 10.013Z" fill="white"/>
<path d="M1.3125 13.3651C1.3125 9.35402 1.3125 5.37763 1.3125 1.36508C1.49495 1.35061 1.64879 1.32891 1.80341 1.32891C4.0129 1.32602 6.22007 1.32457 8.42956 1.32891C9.97806 1.3318 11.4902 2.44001 12.0136 3.74498C12.3027 4.46618 12.3329 5.20402 12.1682 5.90353C11.8598 7.21283 11.0472 8.20241 9.63094 8.64728C9.30083 8.75145 8.94521 8.82668 8.59809 8.83391C7.47557 8.85706 6.35304 8.84549 5.23206 8.84259C5.05889 8.84259 4.85712 8.87153 4.81691 8.63426C4.78444 8.43895 4.90814 8.28198 5.1362 8.26172C5.32947 8.24436 5.52816 8.25449 5.72298 8.25449C6.6128 8.25304 7.50495 8.23568 8.39477 8.25738C9.77087 8.29066 10.9753 7.38789 11.3658 6.30934C12.0515 4.41193 11.2915 3.04837 9.68583 2.19551C9.37891 2.03203 8.98309 1.94812 8.6267 1.94378C6.48988 1.91918 4.35229 1.92931 2.21392 1.92786C2.14434 1.92786 2.07477 1.94378 1.94179 1.96114C1.92788 2.16658 1.90159 2.37563 1.90159 2.58252C1.8985 5.93318 1.90005 9.2824 1.90005 12.6331C1.90005 12.7503 1.90469 12.866 1.8985 12.9839C1.88072 13.3709 1.84052 13.3984 1.3125 13.3651Z" fill="white"/>
<path d="M3.10313 13.3664C2.87894 13.3664 2.71427 13.3664 2.51172 13.3664C2.51172 9.75385 2.51172 6.17966 2.51172 2.55701C2.70963 2.5382 2.89749 2.50348 3.08612 2.50348C4.81398 2.49914 6.54338 2.54109 8.26969 2.48901C9.71536 2.44561 10.9152 3.57118 11.069 4.8067C11.2036 5.88742 10.5967 7.2271 9.19121 7.57071C8.81781 7.66185 8.42817 7.72406 8.0424 7.73419C7.18814 7.75878 6.33155 7.74142 5.47729 7.74142C5.30103 7.74142 5.12399 7.74142 4.96628 7.74142C4.72507 7.23723 4.78228 7.1403 5.29639 7.13741C6.25811 7.13307 7.22061 7.11281 8.18233 7.14175C9.24301 7.17358 10.0834 6.54786 10.3423 5.73262C10.5975 4.9275 10.3655 4.1072 9.55147 3.47714C9.17961 3.18851 8.74359 3.06264 8.27123 3.05975C6.72119 3.05252 5.17192 3.05541 3.62187 3.05975C3.46726 3.05975 3.31341 3.09447 3.10468 3.11907C3.10313 6.5493 3.10313 9.94337 3.10313 13.3664Z" fill="white"/>
<path d="M4.85772 6.4756C4.83452 6.01336 4.86545 5.96128 5.27132 5.95839C6.21603 5.94971 7.15998 5.95694 8.10469 5.95405C8.2825 5.95405 8.46418 5.9555 8.6358 5.92222C8.89556 5.87158 9.08806 5.73125 9.12053 5.46288C9.14063 5.29795 9.15919 5.1294 9.14991 4.96447C9.11898 4.44292 8.88551 4.23748 8.29719 4.23025C7.38881 4.22157 6.47966 4.22736 5.57128 4.22736C5.20097 4.22736 4.82988 4.22736 4.40855 4.22736C4.39309 4.48198 4.36835 4.69248 4.36835 4.90226C4.36526 7.48687 4.3668 10.0708 4.3668 12.6539C4.3668 12.7711 4.37299 12.8869 4.36526 13.0048C4.34052 13.3715 4.27867 13.4091 3.77539 13.3484C3.77539 10.1308 3.77539 6.90818 3.77539 3.65734C3.94547 3.64432 4.08385 3.62551 4.22146 3.62551C5.55736 3.62406 6.89326 3.63129 8.22993 3.62261C8.87701 3.61827 9.33854 3.87001 9.65705 4.39445C10.0475 5.03898 9.76219 6.10089 9.08265 6.45173C8.97905 6.50526 8.84918 6.53275 8.72935 6.53275C7.48313 6.53709 6.23691 6.53419 4.98914 6.5313C4.95667 6.53058 4.9242 6.50598 4.85772 6.4756Z" fill="white"/>
</svg>
