<svg width="67" height="68" viewBox="0 0 67 68" fill="none" xmlns="http://www.w3.org/2000/svg">
<g filter="url(#filter0_d)">
<rect x="4" y="4" width="59" height="60" rx="5" fill="white"/>
</g>
<path d="M45.6844 24.6995L34.6693 19.1929C34.1528 18.9357 33.5443 18.9357 33.0278 19.1929L22.0147 24.6995C21.392 25.0098 21 25.6468 21 26.341V35.5186C21 44.2367 31.3046 48.3671 33.8486 48.3671C36.3925 48.3671 46.6971 44.2347 46.6971 35.5186V26.341C46.6992 25.6468 46.3051 25.0098 45.6844 24.6995ZM43.0261 35.5186C43.0261 41.5641 35.0001 44.6246 33.8486 44.6961C32.697 44.6246 24.671 41.562 24.671 35.5186V27.4762L33.8486 22.8864L43.0261 27.4762V35.5186Z" fill="#2D9CDB"/>
<defs>
<filter id="filter0_d" x="0" y="0" width="67" height="68" filterUnits="userSpaceOnUse" color-interpolation-filters="sRGB">
<feFlood flood-opacity="0" result="BackgroundImageFix"/>
<feColorMatrix in="SourceAlpha" type="matrix" values="0 0 0 0 0 0 0 0 0 0 0 0 0 0 0 0 0 0 127 0"/>
<feOffset/>
<feGaussianBlur stdDeviation="2"/>
<feColorMatrix type="matrix" values="0 0 0 0 0 0 0 0 0 0 0 0 0 0 0 0 0 0 0.15 0"/>
<feBlend mode="normal" in2="BackgroundImageFix" result="effect1_dropShadow"/>
<feBlend mode="normal" in="SourceGraphic" in2="effect1_dropShadow" result="shape"/>
</filter>
</defs>
</svg>
