<svg width="30" height="30" viewBox="0 0 30 30" fill="none" xmlns="http://www.w3.org/2000/svg">
    <rect width="30" height="30" rx="5" fill="#F11111"/>
    <mask id="mask0" mask-type="alpha" maskUnits="userSpaceOnUse" x="5" y="5" width="20" height="20">
        <path fill-rule="evenodd" clip-rule="evenodd" d="M5 5H25V25H5V5Z" fill="white"/>
    </mask>
    <g mask="url(#mask0)">
        <path fill-rule="evenodd" clip-rule="evenodd" d="M9.50556 15.817C9.50556 16.326 9.50746 16.8066 9.50492 17.2872C9.50302 17.6543 9.53288 18.0389 8.96995 18.0079C8.89409 18.0036 8.80921 18.1599 8.72852 18.2418C8.81175 18.3206 8.8946 18.4669 8.97834 18.4674C9.73517 18.4713 10.4921 18.453 11.2486 18.4279C11.294 18.4263 11.3355 18.3107 11.3961 18.2229C11.2951 18.1605 11.2285 18.0838 11.1612 18.0833C10.596 18.0793 10.4554 17.7741 10.4982 17.26C10.5375 16.7875 10.5065 16.3091 10.5065 15.817H9.50556ZM8.74358 11.5097C9.50308 12.033 9.50308 12.033 9.50321 13.0818C9.50321 13.5053 9.51033 13.929 9.50156 14.3522C9.49432 14.7021 9.52024 14.962 9.9979 14.9585C10.4753 14.9551 10.4928 14.6948 10.4892 14.3446C10.48 13.5041 10.4862 12.6634 10.4862 11.8358C12.0228 11.621 12.7158 12.2296 12.6451 13.6504C12.6018 14.5205 11.9875 15.1079 10.9325 15.1712C10.0401 15.2246 9.14182 15.1821 8.24609 15.1821C9.48097 15.6365 10.749 15.6161 11.992 15.4049C13.1376 15.2103 13.821 14.246 13.7086 13.2345C13.5833 12.1055 12.8189 11.4635 11.5634 11.4477C10.8011 11.4382 10.0387 11.442 9.27639 11.4488C9.09862 11.4504 8.92122 11.4885 8.74358 11.5097ZM19.99 13.3992C20.037 13.4158 20.0842 13.4325 20.1312 13.4493C20.1312 14.7099 20.126 15.9705 20.134 17.2311C20.1368 17.6574 20.1682 18.07 19.5334 18.0039C19.4511 17.9954 19.3534 18.1349 19.2628 18.2058C19.3555 18.2974 19.4459 18.4654 19.5416 18.4686C20.2391 18.4918 20.938 18.492 21.6356 18.4711C21.7362 18.4681 21.8322 18.3134 21.9303 18.2289C21.8383 18.1441 21.7422 17.9824 21.6549 17.987C21.1413 18.0136 21.1241 17.6749 21.1264 17.3184C21.1366 15.6895 21.1535 14.0605 21.1611 12.4314C21.1624 12.1298 21.18 11.8786 21.5856 11.8849C21.6642 11.886 21.7447 11.7449 21.8244 11.6693C21.7484 11.6123 21.6802 11.5245 21.5953 11.5032C20.6507 11.2647 20.1532 11.5183 19.7426 12.4236C19.5597 12.827 19.369 13.227 19.1712 13.6233C18.6418 14.6845 18.1066 15.7428 17.5314 16.8865C16.7254 15.2097 15.9683 13.632 15.2087 12.0554C14.8831 11.3798 14.0981 11.1977 13.3758 11.668C13.6044 11.7639 13.8043 11.8478 13.9088 11.8915C13.9088 13.7467 13.9077 15.5407 13.9096 17.3346C13.91 17.7332 13.6978 17.8881 13.3209 17.9261C13.1654 17.9419 13.0208 18.0658 12.8711 18.1405C13.0372 18.22 13.2002 18.3592 13.3701 18.3682C13.9187 18.3977 14.4709 18.3982 15.0195 18.368C15.1893 18.3586 15.3517 18.2153 15.5174 18.1333C15.3672 18.0624 15.2054 18.0086 15.0697 17.9164C14.8885 17.7935 14.5839 17.6446 14.5802 17.5003C14.5434 16.0803 14.5578 14.6589 14.5578 13.0597C15.531 14.9582 16.4156 16.6844 17.358 18.5232C18.2884 16.712 19.1393 15.0557 19.99 13.3992ZM14.9936 25C9.41699 24.9963 4.97356 20.5333 5.00012 14.9621C5.02655 9.4037 9.45333 4.99644 15.0064 5C20.583 5.00356 25.0267 9.46711 24.9999 15.0383C24.9732 20.5966 20.5464 25.0036 14.9936 25Z" fill="white"/>
    </g>
</svg>
